<svg width="960" height="126" viewBox="0 0 960 126" fill="none" xmlns="http://www.w3.org/2000/svg">
<path d="M0 4.02053L22.8 12.1525C45.7 20.2272 91.3 36.4911 137 37.9228C182.7 39.3545 228.3 25.9539 274 17.4784C319.7 9.00279 365.3 5.33768 411.2 2.98972C457 0.584488 503 -0.560859 548.8 5.85308C594.7 12.2098 640.3 26.183 686 25.8967C731.7 25.6103 777.3 11.0644 823 4.70774C868.7 -1.70621 914.3 0.0118158 937.2 0.870826L960 1.72984V126H937.2C914.3 126 868.7 126 823 126C777.3 126 731.7 126 686 126C640.3 126 594.7 126 548.8 126C503 126 457 126 411.2 126C365.3 126 319.7 126 274 126C228.3 126 182.7 126 137 126C91.3 126 45.7 126 22.8 126H0V4.02053Z" fill="#C44C40"/>
</svg>
