<svg width="960" height="240" viewBox="0 0 960 240" fill="none" xmlns="http://www.w3.org/2000/svg">
<path d="M0 202.3L22.8 211.8C45.7 221.3 91.3 240.3 137 239.5C182.7 238.6 228.3 236.8 274 223.1C319.7 209.4 365.3 201.3 411.2 202.3C457 203.3 503 210.3 548.8 219.5C594.7 228.7 640.3 238.3 686 236.3C731.7 234.3 777.3 220.7 823 211.8C868.7 203 914.3 199 937.2 197L960 195V0.5H937.2C914.3 0.5 868.7 0.5 823 0.5C777.3 0.5 731.7 0.5 686 0.5C640.3 0.5 594.7 0.5 548.8 0.5C503 0.5 457 0.5 411.2 0.5C365.3 0.5 319.7 0.5 274 0.5C228.3 0.5 182.7 0.5 137 0.5C91.3 0.5 45.7 0.5 22.8 0.5H0V202.3Z" fill="#C44C40"/>
</svg>
