<svg id="visual" viewBox="0 0 960 540" width="960" height="540" xmlns="http://www.w3.org/2000/svg" xmlns:xlink="http://www.w3.org/1999/xlink" version="1.1"><rect x="0" y="0" width="960" height="540" fill="#001220"></rect><defs><linearGradient id="grad1_0" x1="43.8%" y1="100%" x2="100%" y2="0%"><stop offset="14.444444444444446%" stop-color="#001220" stop-opacity="1"></stop><stop offset="85.55555555555554%" stop-color="#001220" stop-opacity="1"></stop></linearGradient></defs><defs><linearGradient id="grad2_0" x1="0%" y1="100%" x2="56.3%" y2="0%"><stop offset="14.444444444444446%" stop-color="#001220" stop-opacity="1"></stop><stop offset="85.55555555555554%" stop-color="#001220" stop-opacity="1"></stop></linearGradient></defs><g transform="translate(960, 540)"><path d="M-243 0C-244 -36.4 -244.9 -72.8 -224.5 -93C-204.1 -113.2 -162.3 -117.2 -139.3 -139.3C-116.3 -161.4 -111.9 -201.4 -91.8 -221.7C-71.7 -242 -35.9 -242.5 0 -243L0 0Z" fill="#FBAE3C"></path></g><g transform="translate(0, 0)"><path d="M243 0C226.6 26.6 210.2 53.2 200.5 83C190.8 112.9 187.9 145.9 171.1 171.1C154.4 196.4 123.8 213.8 93 224.5C62.2 235.2 31.1 239.1 0 243L0 0Z" fill="#FBAE3C"></path></g></svg>