<svg id="visual" viewBox="0 0 960 540" width="960" height="540" xmlns="http://www.w3.org/2000/svg" xmlns:xlink="http://www.w3.org/1999/xlink" version="1.1"><path d="M0 211L22.8 218.2C45.7 225.3 91.3 239.7 137 244C182.7 248.3 228.3 242.7 274 235.2C319.7 227.7 365.3 218.3 411.2 215.5C457 212.7 503 216.3 548.8 228.5C594.7 240.7 640.3 261.3 686 276.7C731.7 292 777.3 302 823 300.5C868.7 299 914.3 286 937.2 279.5L960 273L960 0L937.2 0C914.3 0 868.7 0 823 0C777.3 0 731.7 0 686 0C640.3 0 594.7 0 548.8 0C503 0 457 0 411.2 0C365.3 0 319.7 0 274 0C228.3 0 182.7 0 137 0C91.3 0 45.7 0 22.8 0L0 0Z" fill="#c44c40" stroke-linecap="round" stroke-linejoin="miter"></path></svg>