<svg version="1.1" viewBox="0.0 0.0 960.0 540.0" fill="none" stroke="none" stroke-linecap="square" stroke-miterlimit="10" xmlns:xlink="http://www.w3.org/1999/xlink" xmlns="http://www.w3.org/2000/svg"><clipPath id="p.0"><path d="m0 0l960.0 0l0 540.0l-960.0 0l0 -540.0z" clip-rule="nonzero"/></clipPath><g clip-path="url(#p.0)"><path fill="#ffffff" d="m0 0l960.0 0l0 540.0l-960.0 0z" fill-rule="evenodd"/><path fill="#81fffd" d="m106.068054 238.2547l164.6614 0l0 48.15747l-164.6614 0z" fill-rule="evenodd"/><path stroke="#000000" stroke-width="3.0" stroke-linejoin="round" stroke-linecap="butt" d="m106.068054 238.2547l164.6614 0l0 48.15747l-164.6614 0z" fill-rule="evenodd"/><path fill="#000000" d="m150.92351 252.98032l0 2.953125l3.609375 0l0 13.0625l-3.609375 0l0 2.9375l10.953125 0l0 -2.9375l-3.6875 0l0 -13.0625l3.6875 0l0 -2.953125l-10.953125 0zm15.308853 18.953125l3.640625 0l0 -10.015625q0.1875 -0.28125 0.40625 -0.515625q0.21875 -0.234375 0.484375 -0.40625q0.34375 -0.234375 0.78125 -0.34375q0.4375 -0.125 0.953125 -0.125q0.625 0 1.109375 0.125q0.5 0.125 0.859375 0.4375q0.34375 0.3125 0.53125 0.859375q0.203125 0.53125 0.203125 1.375l0 8.609375l3.609375 0l0 -8.671875q0 -1.53125 -0.359375 -2.609375q-0.359375 -1.078125 -0.984375 -1.765625q-0.65625 -0.671875 -1.546875 -0.984375q-0.875 -0.3125 -1.953125 -0.3125q-0.828125 0 -1.578125 0.234375q-0.734375 0.234375 -1.359375 0.671875q-0.359375 0.265625 -0.6875 0.59375q-0.328125 0.328125 -0.59375 0.71875l-0.234375 -1.953125l-3.28125 0l0 14.078125zm16.058853 5.421875l3.609375 0l0 -6.640625q0.25 0.265625 0.515625 0.5q0.28125 0.21875 0.578125 0.390625q0.515625 0.296875 1.109375 0.4375q0.59375 0.15625 1.296875 0.15625q1.328125 0 2.34375 -0.546875q1.03125 -0.546875 1.734375 -1.515625q0.6875 -0.953125 1.046875 -2.265625q0.359375 -1.3125 0.359375 -2.84375l0 -0.28125q0 -1.59375 -0.359375 -2.90625q-0.359375 -1.328125 -1.0625 -2.28125q-0.703125 -0.9375 -1.734375 -1.453125q-1.015625 -0.515625 -2.359375 -0.515625q-0.65625 0 -1.21875 0.140625q-0.5625 0.140625 -1.03125 0.375q-0.390625 0.21875 -0.734375 0.5q-0.328125 0.265625 -0.625 0.625l-0.125 -1.375l-3.34375 0l0 19.5zm8.984375 -12.609375l0 0.28125q0 0.859375 -0.15625 1.640625q-0.15625 0.78125 -0.5 1.359375q-0.34375 0.59375 -0.890625 0.9375q-0.53125 0.328125 -1.296875 0.328125q-0.484375 0 -0.875 -0.09375q-0.390625 -0.109375 -0.6875 -0.28125q-0.3125 -0.203125 -0.5625 -0.46875q-0.234375 -0.28125 -0.40625 -0.609375l0 -5.890625q0.1875 -0.359375 0.4375 -0.625q0.265625 -0.28125 0.59375 -0.46875q0.296875 -0.15625 0.65625 -0.234375q0.375 -0.09375 0.8125 -0.09375q0.765625 0 1.3125 0.328125q0.546875 0.328125 0.890625 0.890625q0.34375 0.5625 0.5 1.34375q0.171875 0.78125 0.171875 1.65625zm16.152603 7.1875l3.265625 0l0 -14.078125l-3.625 0l0 9.875q-0.171875 0.34375 -0.40625 0.625q-0.234375 0.265625 -0.53125 0.453125q-0.34375 0.21875 -0.8125 0.34375q-0.46875 0.109375 -1.03125 0.109375q-0.640625 0 -1.09375 -0.15625q-0.4375 -0.15625 -0.703125 -0.515625q-0.28125 -0.359375 -0.40625 -0.9375q-0.109375 -0.59375 -0.109375 -1.453125l0 -8.34375l-3.625 0l0 8.328125q0 1.59375 0.359375 2.734375q0.359375 1.140625 1.0 1.875q0.65625 0.734375 1.5625 1.078125q0.921875 0.328125 2.015625 0.328125q1.1875 0 2.1875 -0.59375q1.015625 -0.59375 1.734375 -1.65625l0.21875 1.984375zm13.433853 -17.53125l-3.609375 0l0 3.453125l-3.21875 0l0 2.65625l3.21875 0l0 6.40625q0 1.390625 0.359375 2.390625q0.359375 1.0 1.046875 1.640625q0.65625 0.640625 1.59375 0.953125q0.953125 0.296875 2.109375 0.296875q0.59375 0 1.21875 -0.0625q0.625 -0.046875 1.1875 -0.15625q0.578125 -0.09375 1.078125 -0.25q0.515625 -0.171875 0.890625 -0.390625l-0.359375 -2.484375q-0.234375 0.0625 -0.578125 0.125q-0.34375 0.0625 -0.734375 0.109375q-0.40625 0.078125 -0.84375 0.125q-0.4375 0.03125 -0.859375 0.03125q-0.5625 0 -1.03125 -0.125q-0.46875 -0.140625 -0.78125 -0.453125q-0.328125 -0.296875 -0.515625 -0.8125q-0.171875 -0.515625 -0.171875 -1.28125l0 -6.0625l5.265625 0l0 -2.65625l-5.265625 0l0 -3.453125z" fill-rule="nonzero"/><path fill="#81fffd" d="m714.5297 232.22856l164.66144 0l0 48.157486l-164.66144 0z" fill-rule="evenodd"/><path stroke="#000000" stroke-width="3.0" stroke-linejoin="round" stroke-linecap="butt" d="m714.5297 232.22856l164.66144 0l0 48.157486l-164.66144 0z" fill-rule="evenodd"/><path fill="#000000" d="m763.7933 257.82916l0 -2.7656097q0 -1.28125 -0.234375 -2.421875q-0.234375 -1.15625 -0.703125 -2.125q-0.40625 -0.84375 -0.984375 -1.546875q-0.578125 -0.703125 -1.34375 -1.1875q-0.78125 -0.53125 -1.734375 -0.8125q-0.953125 -0.28125 -2.046875 -0.28125q-1.078125 0 -2.0 0.28125q-0.921875 0.265625 -1.671875 0.78125q-0.75 0.515625 -1.328125 1.25q-0.578125 0.734375 -0.984375 1.625q-0.421875 0.953125 -0.640625 2.078125q-0.203125 1.109375 -0.203125 2.359375l0 2.7656097q0 1.171875 0.1875 2.234375q0.1875 1.046875 0.546875 1.9375q0.40625 0.984375 1.0 1.765625q0.609375 0.765625 1.359375 1.3125q0.765625 0.515625 1.703125 0.8125q0.9375 0.28125 2.046875 0.28125q1.03125 0 1.9375 -0.265625q0.90625 -0.25 1.671875 -0.703125q0.828125 -0.515625 1.46875 -1.296875q0.65625 -0.78125 1.09375 -1.71875q0.421875 -0.9375 0.640625 -2.03125q0.21875 -1.109375 0.21875 -2.328125zm-3.703125 -2.7968597l0 2.7968597q0 0.703125 -0.078125 1.359375q-0.0625 0.640625 -0.203125 1.1875q-0.1875 0.703125 -0.5 1.265625q-0.296875 0.546875 -0.734375 0.90625q-0.359375 0.296875 -0.8125 0.453125q-0.453125 0.15625 -1.0 0.15625q-0.578125 0 -1.03125 -0.15625q-0.4375 -0.171875 -0.796875 -0.484375q-0.375 -0.359375 -0.65625 -0.921875q-0.28125 -0.5625 -0.421875 -1.265625q-0.125 -0.546875 -0.1875 -1.171875q-0.046875 -0.640625 -0.046875 -1.328125l0 -2.7968597q0 -0.71875 0.0625 -1.375q0.0625 -0.671875 0.1875 -1.234375q0.171875 -0.734375 0.46875 -1.28125q0.3125 -0.546875 0.75 -0.90625q0.328125 -0.25 0.734375 -0.375q0.40625 -0.125 0.921875 -0.125q0.53125 0 0.96875 0.140625q0.4375 0.140625 0.78125 0.40625q0.453125 0.34375 0.765625 0.90625q0.328125 0.546875 0.53125 1.25q0.15625 0.5625 0.21875 1.21875q0.078125 0.65625 0.078125 1.375zm15.808838 10.874985l3.265625 0l0 -14.07811l-3.625 0l0 9.874985q-0.171875 0.34375 -0.40625 0.625q-0.234375 0.265625 -0.53125 0.453125q-0.34375 0.21875 -0.8125 0.34375q-0.46875 0.109375 -1.03125 0.109375q-0.640625 0 -1.09375 -0.15625q-0.4375 -0.15625 -0.703125 -0.515625q-0.28125 -0.359375 -0.40625 -0.9375q-0.109375 -0.59375 -0.109375 -1.453125l0 -8.343735l-3.625 0l0 8.32811q0 1.59375 0.359375 2.734375q0.359375 1.140625 1.0 1.875q0.65625 0.734375 1.5625 1.078125q0.921875 0.328125 2.015625 0.328125q1.1875 0 2.1875 -0.59375q1.015625 -0.59375 1.734375 -1.65625l0.21875 1.984375zm13.433838 -17.531235l-3.609375 0l0 3.453125l-3.21875 0l0 2.65625l3.21875 0l0 6.4062347q0 1.390625 0.359375 2.390625q0.359375 1.0 1.046875 1.640625q0.65625 0.640625 1.59375 0.953125q0.953125 0.296875 2.109375 0.296875q0.59375 0 1.21875 -0.0625q0.625 -0.046875 1.1875 -0.15625q0.578125 -0.09375 1.078125 -0.25q0.515625 -0.171875 0.890625 -0.390625l-0.359375 -2.484375q-0.234375 0.0625 -0.578125 0.125q-0.34375 0.0625 -0.734375 0.109375q-0.40625 0.078125 -0.84375 0.125q-0.4375 0.03125 -0.859375 0.03125q-0.5625 0 -1.03125 -0.125q-0.46875 -0.140625 -0.78125 -0.453125q-0.328125 -0.296875 -0.515625 -0.8125q-0.171875 -0.515625 -0.171875 -1.28125l0 -6.0624847l5.265625 0l0 -2.65625l-5.265625 0l0 -3.453125zm9.418213 22.95311l3.609375 0l0 -6.640625q0.25 0.265625 0.515625 0.5q0.28125 0.21875 0.578125 0.390625q0.515625 0.296875 1.109375 0.4375q0.59375 0.15625 1.296875 0.15625q1.328125 0 2.34375 -0.546875q1.03125 -0.546875 1.734375 -1.515625q0.6875 -0.953125 1.046875 -2.265625q0.359375 -1.3125 0.359375 -2.84375l0 -0.28125q0 -1.59375 -0.359375 -2.9062347q-0.359375 -1.328125 -1.0625 -2.28125q-0.703125 -0.9375 -1.734375 -1.453125q-1.015625 -0.515625 -2.359375 -0.515625q-0.65625 0 -1.21875 0.140625q-0.5625 0.140625 -1.03125 0.375q-0.390625 0.21875 -0.734375 0.5q-0.328125 0.265625 -0.625 0.625l-0.125 -1.375l-3.34375 0l0 19.499985zm8.984375 -12.609375l0 0.28125q0 0.859375 -0.15625 1.640625q-0.15625 0.78125 -0.5 1.359375q-0.34375 0.59375 -0.890625 0.9375q-0.53125 0.328125 -1.296875 0.328125q-0.484375 0 -0.875 -0.09375q-0.390625 -0.109375 -0.6875 -0.28125q-0.3125 -0.203125 -0.5625 -0.46875q-0.234375 -0.28125 -0.40625 -0.609375l0 -5.8906097q0.1875 -0.359375 0.4375 -0.625q0.265625 -0.28125 0.59375 -0.46875q0.296875 -0.15625 0.65625 -0.234375q0.375 -0.09375 0.8125 -0.09375q0.765625 0 1.3125 0.328125q0.546875 0.328125 0.890625 0.890625q0.34375 0.56248474 0.5 1.3437347q0.171875 0.78125 0.171875 1.65625zm16.152649 7.1875l3.265625 0l0 -14.07811l-3.625 0l0 9.874985q-0.171875 0.34375 -0.40625 0.625q-0.234375 0.265625 -0.53125 0.453125q-0.34375 0.21875 -0.8125 0.34375q-0.46875 0.109375 -1.03125 0.109375q-0.640625 0 -1.09375 -0.15625q-0.4375 -0.15625 -0.703125 -0.515625q-0.28125 -0.359375 -0.40625 -0.9375q-0.109375 -0.59375 -0.109375 -1.453125l0 -8.343735l-3.625 0l0 8.32811q0 1.59375 0.359375 2.734375q0.359375 1.140625 1.0 1.875q0.65625 0.734375 1.5625 1.078125q0.921875 0.328125 2.015625 0.328125q1.1875 0 2.1875 -0.59375q1.015625 -0.59375 1.734375 -1.65625l0.21875 1.984375zm13.433838 -17.531235l-3.609375 0l0 3.453125l-3.21875 0l0 2.65625l3.21875 0l0 6.4062347q0 1.390625 0.359375 2.390625q0.359375 1.0 1.046875 1.640625q0.65625 0.640625 1.59375 0.953125q0.953125 0.296875 2.109375 0.296875q0.59375 0 1.21875 -0.0625q0.625 -0.046875 1.1875 -0.15625q0.578125 -0.09375 1.078125 -0.25q0.515625 -0.171875 0.890625 -0.390625l-0.359375 -2.484375q-0.234375 0.0625 -0.578125 0.125q-0.34375 0.0625 -0.734375 0.109375q-0.40625 0.078125 -0.84375 0.125q-0.4375 0.03125 -0.859375 0.03125q-0.5625 0 -1.03125 -0.125q-0.46875 -0.140625 -0.78125 -0.453125q-0.328125 -0.296875 -0.515625 -0.8125q-0.171875 -0.515625 -0.171875 -1.28125l0 -6.0624847l5.265625 0l0 -2.65625l-5.265625 0l0 -3.453125z" fill-rule="nonzero"/><path fill="#f3e0b5" d="m388.4567 209.26509l224.78738 0l0 106.14174l-224.78738 0z" fill-rule="evenodd"/><path stroke="#000000" stroke-width="3.0" stroke-linejoin="round" stroke-linecap="butt" d="m388.4567 209.26509l224.78738 0l0 106.14174l-224.78738 0z" fill-rule="evenodd"/><path fill="#000000" d="m431.89987 235.98283l1.09375 3.953125l3.859375 0l-6.09375 -18.953125l-3.3125 0l-6.21875 18.953125l3.859375 0l1.125 -3.953125l5.6875 0zm-4.796875 -3.109375l1.984375 -6.984375l1.953125 6.984375l-3.9375 0zm21.715118 -7.28125q-1.421875 0 -2.625 0.6875q-1.1875 0.671875 -2.046875 1.875l-0.03125 -0.3125l-0.140625 -1.984375l-3.375 0l0 14.078125l3.625 0l0 -8.453125q0.234375 -0.609375 0.609375 -1.046875q0.390625 -0.4375 0.921875 -0.734375q0.4375 -0.25 1.0 -0.359375q0.578125 -0.125 1.28125 -0.125q0.671875 0 1.421875 0.078125q0.75 0.078125 1.46875 0.25l0.53125 -3.59375q-0.4375 -0.140625 -1.140625 -0.25q-0.6875 -0.109375 -1.5 -0.109375zm6.840088 0.265625l0 2.953125l4.015625 0l0 8.1875l-4.015625 0l0 2.9375l11.484375 0l0 -2.9375l-3.8125 0l0 -11.140625l-7.671875 0zm3.75 -3.609375q0 0.421875 0.140625 0.78125q0.15625 0.34375 0.4375 0.59375q0.265625 0.265625 0.640625 0.40625q0.390625 0.140625 0.859375 0.140625q0.96875 0 1.53125 -0.53125q0.5625 -0.546875 0.5625 -1.390625q0 -0.84375 -0.5625 -1.375q-0.5625 -0.546875 -1.53125 -0.546875q-0.46875 0 -0.859375 0.140625q-0.375 0.140625 -0.640625 0.390625q-0.28125 0.25 -0.4375 0.609375q-0.140625 0.359375 -0.140625 0.78125zm17.918243 0.15625l-3.609375 0l0 3.453125l-3.21875 0l0 2.65625l3.21875 0l0 6.40625q0 1.390625 0.359375 2.390625q0.359375 1.0 1.046875 1.640625q0.65625 0.640625 1.59375 0.953125q0.953125 0.296875 2.109375 0.296875q0.59375 0 1.21875 -0.0625q0.625 -0.046875 1.1875 -0.15625q0.578125 -0.09375 1.078125 -0.25q0.515625 -0.171875 0.890625 -0.390625l-0.359375 -2.484375q-0.234375 0.0625 -0.578125 0.125q-0.34375 0.0625 -0.734375 0.109375q-0.40625 0.078125 -0.84375 0.125q-0.4375 0.03125 -0.859375 0.03125q-0.5625 0 -1.03125 -0.125q-0.46875 -0.140625 -0.78125 -0.453125q-0.328125 -0.296875 -0.515625 -0.8125q-0.171875 -0.515625 -0.171875 -1.28125l0 -6.0625l5.265625 0l0 -2.65625l-5.265625 0l0 -3.453125zm12.980713 5.390625l0 -7.859375l-3.625 0l0 20.0l3.625 0l0 -10.171875q0.203125 -0.265625 0.453125 -0.484375q0.265625 -0.21875 0.578125 -0.375q0.328125 -0.1875 0.75 -0.28125q0.421875 -0.09375 0.90625 -0.09375q0.625 0 1.109375 0.171875q0.5 0.15625 0.84375 0.5q0.359375 0.328125 0.546875 0.875q0.1875 0.546875 0.1875 1.3125l0 8.546875l3.625 0l0 -8.53125q0 -1.546875 -0.375 -2.640625q-0.375 -1.109375 -1.03125 -1.8125q-0.671875 -0.6875 -1.59375 -1.015625q-0.921875 -0.34375 -2.03125 -0.34375q-0.75 0 -1.4375 0.21875q-0.671875 0.21875 -1.234375 0.625q-0.359375 0.265625 -0.6875 0.609375q-0.328125 0.34375 -0.609375 0.75zm14.636993 -1.9375l-3.125 0l0 14.078125l3.296875 0l0 -10.546875q0.0625 -0.171875 0.140625 -0.3125q0.078125 -0.140625 0.1875 -0.25q0.140625 -0.140625 0.328125 -0.21875q0.1875 -0.078125 0.421875 -0.078125q0.203125 0 0.375 0.0625q0.1875 0.0625 0.328125 0.203125q0.140625 0.140625 0.21875 0.40625q0.078125 0.25 0.078125 0.65625l0 10.078125l3.1875 0l0 -10.390625q0 -0.15625 0 -0.234375q0 -0.09375 0 -0.125q0.0625 -0.140625 0.15625 -0.25q0.09375 -0.109375 0.203125 -0.203125q0.140625 -0.09375 0.296875 -0.140625q0.171875 -0.0625 0.375 -0.0625q0.203125 0 0.390625 0.0625q0.1875 0.0625 0.328125 0.203125q0.140625 0.15625 0.21875 0.421875q0.09375 0.25 0.09375 0.65625l0 10.0625l3.296875 0l0 -10.046875q0 -1.171875 -0.234375 -1.984375q-0.21875 -0.8125 -0.625 -1.328125q-0.421875 -0.515625 -0.96875 -0.75q-0.546875 -0.234375 -1.1875 -0.234375q-0.515625 0 -0.953125 0.140625q-0.421875 0.125 -0.75 0.359375q-0.28125 0.171875 -0.515625 0.4375q-0.21875 0.25 -0.40625 0.5625q-0.109375 -0.328125 -0.28125 -0.578125q-0.15625 -0.25 -0.375 -0.4375q-0.296875 -0.25 -0.6875 -0.359375q-0.390625 -0.125 -0.875 -0.125q-1.015625 0 -1.734375 0.53125q-0.703125 0.515625 -1.109375 1.4375l-0.09375 -1.703125zm20.574463 14.34375q2.046875 0 3.53125 -0.796875q1.5 -0.796875 2.1875 -1.765625l-1.796875 -1.953125q-0.625 0.796875 -1.640625 1.203125q-1.0 0.40625 -2.0625 0.40625q-0.75 0 -1.390625 -0.234375q-0.640625 -0.234375 -1.140625 -0.671875q-0.46875 -0.40625 -0.765625 -0.921875q-0.28125 -0.515625 -0.46875 -1.359375l0 -0.046875l9.5625 0l0 -1.53125q0 -1.546875 -0.4375 -2.828125q-0.421875 -1.28125 -1.25 -2.203125q-0.828125 -0.90625 -2.03125 -1.40625q-1.1875 -0.5 -2.703125 -0.5q-1.46875 0 -2.71875 0.53125q-1.25 0.53125 -2.15625 1.5q-0.921875 0.96875 -1.4375 2.296875q-0.5 1.328125 -0.5 2.953125l0 0.515625q0 1.421875 0.515625 2.671875q0.515625 1.234375 1.46875 2.140625q0.953125 0.921875 2.28125 1.46875q1.328125 0.53125 2.953125 0.53125zm-0.4375 -11.6875q0.6875 0 1.21875 0.21875q0.53125 0.21875 0.890625 0.578125q0.375 0.375 0.578125 0.890625q0.203125 0.5 0.203125 1.078125l0 0.28125l-5.9375 0q0.140625 -0.6875 0.390625 -1.234375q0.265625 -0.5625 0.65625 -0.96875q0.375 -0.40625 0.875 -0.625q0.515625 -0.21875 1.125 -0.21875zm16.230713 -6.109375l-3.609375 0l0 3.453125l-3.21875 0l0 2.65625l3.21875 0l0 6.40625q0 1.390625 0.359375 2.390625q0.359375 1.0 1.046875 1.640625q0.65625 0.640625 1.59375 0.953125q0.953125 0.296875 2.109375 0.296875q0.59375 0 1.21875 -0.0625q0.625 -0.046875 1.1875 -0.15625q0.578125 -0.09375 1.078125 -0.25q0.515625 -0.171875 0.890625 -0.390625l-0.359375 -2.484375q-0.234375 0.0625 -0.578125 0.125q-0.34375 0.0625 -0.734375 0.109375q-0.40625 0.078125 -0.84375 0.125q-0.4375 0.03125 -0.859375 0.03125q-0.5625 0 -1.03125 -0.125q-0.46875 -0.140625 -0.78125 -0.453125q-0.328125 -0.296875 -0.515625 -0.8125q-0.171875 -0.515625 -0.171875 -1.28125l0 -6.0625l5.265625 0l0 -2.65625l-5.265625 0l0 -3.453125zm10.324463 3.453125l0 2.953125l4.015625 0l0 8.1875l-4.015625 0l0 2.9375l11.484375 0l0 -2.9375l-3.8125 0l0 -11.140625l-7.671875 0zm3.75 -3.609375q0 0.421875 0.140625 0.78125q0.15625 0.34375 0.4375 0.59375q0.265625 0.265625 0.640625 0.40625q0.390625 0.140625 0.859375 0.140625q0.96875 0 1.53125 -0.53125q0.5625 -0.546875 0.5625 -1.390625q0 -0.84375 -0.5625 -1.375q-0.5625 -0.546875 -1.53125 -0.546875q-0.46875 0 -0.859375 0.140625q-0.375 0.140625 -0.640625 0.390625q-0.28125 0.25 -0.4375 0.609375q-0.140625 0.359375 -0.140625 0.78125zm17.512024 15.0625q-0.859375 0 -1.4375 -0.34375q-0.5625 -0.359375 -0.890625 -0.953125q-0.328125 -0.5625 -0.46875 -1.328125q-0.125 -0.765625 -0.125 -1.578125l0 -0.390625q0 -0.8125 0.140625 -1.5625q0.140625 -0.765625 0.46875 -1.34375q0.328125 -0.59375 0.890625 -0.9375q0.5625 -0.359375 1.421875 -0.359375q0.578125 0 1.0625 0.203125q0.5 0.203125 0.859375 0.546875q0.34375 0.34375 0.53125 0.8125q0.1875 0.46875 0.15625 0.984375l3.40625 0q0.03125 -1.25 -0.421875 -2.25q-0.4375 -1.015625 -1.21875 -1.734375q-0.8125 -0.703125 -1.921875 -1.09375q-1.109375 -0.390625 -2.40625 -0.390625q-1.625 0 -2.859375 0.5625q-1.234375 0.5625 -2.0625 1.515625q-0.828125 0.96875 -1.25 2.265625q-0.421875 1.296875 -0.421875 2.78125l0 0.390625q0 1.484375 0.421875 2.78125q0.4375 1.28125 1.265625 2.25q0.8125 0.96875 2.046875 1.515625q1.25 0.546875 2.890625 0.546875q1.203125 0 2.28125 -0.375q1.09375 -0.390625 1.921875 -1.0625q0.8125 -0.671875 1.28125 -1.609375q0.484375 -0.9375 0.453125 -2.03125l-3.40625 0q0.03125 0.484375 -0.171875 0.890625q-0.203125 0.40625 -0.5625 0.6875q-0.375 0.296875 -0.859375 0.453125q-0.46875 0.15625 -1.015625 0.15625z" fill-rule="nonzero"/><path fill="#000000" d="m423.9017 267.98282l1.09375 3.953125l3.859375 0l-6.09375 -18.95311l-3.3125 0l-6.21875 18.95311l3.859375 0l1.125 -3.953125l5.6875 0zm-4.796875 -3.109375l1.984375 -6.984375l1.953125 6.984375l-3.9375 0zm11.590088 7.0625l3.640625 0l0 -10.015625q0.1875 -0.28125 0.40625 -0.515625q0.21875 -0.234375 0.484375 -0.40625q0.34375 -0.234375 0.78125 -0.34375q0.4375 -0.125 0.953125 -0.125q0.625 0 1.109375 0.125q0.5 0.125 0.859375 0.4375q0.34375 0.3125 0.53125 0.859375q0.203125 0.53125 0.203125 1.375l0 8.609375l3.609375 0l0 -8.671875q0 -1.53125 -0.359375 -2.609375q-0.359375 -1.078125 -0.984375 -1.765625q-0.65625 -0.671875 -1.546875 -0.984375q-0.875 -0.3125 -1.953125 -0.3125q-0.828125 0 -1.578125 0.234375q-0.734375 0.234375 -1.359375 0.671875q-0.359375 0.265625 -0.6875 0.59375q-0.328125 0.328125 -0.59375 0.71875l-0.234375 -1.953125l-3.28125 0l0 14.078125zm15.621368 -7.140625l0 0.265625q0 1.53125 0.375 2.84375q0.390625 1.3125 1.09375 2.265625q0.703125 0.953125 1.71875 1.5q1.03125 0.53125 2.328125 0.53125q1.171875 0 2.0625 -0.453125q0.90625 -0.46875 1.578125 -1.28125l0.1875 1.46875l3.265625 0l0 -19.999985l-3.640625 0l0 7.1718597q-0.640625 -0.71875 -1.484375 -1.109375q-0.84375 -0.40625 -1.953125 -0.40625q-1.3125 0 -2.34375 0.53125q-1.015625 0.515625 -1.71875 1.453125q-0.71875 0.953125 -1.09375 2.28125q-0.375 1.328125 -0.375 2.9375zm3.625 0.265625l0 -0.265625q0 -0.890625 0.15625 -1.65625q0.15625 -0.78125 0.5 -1.375q0.328125 -0.5625 0.859375 -0.890625q0.546875 -0.34375 1.3125 -0.34375q0.9375 0 1.546875 0.40625q0.609375 0.390625 0.96875 1.109375l0 5.703125q-0.359375 0.703125 -0.984375 1.109375q-0.609375 0.390625 -1.546875 0.390625q-0.765625 0 -1.3125 -0.3125q-0.53125 -0.328125 -0.859375 -0.90625q-0.34375 -0.5625 -0.5 -1.3125q-0.140625 -0.765625 -0.140625 -1.65625zm32.53958 3.921875l0 -15.999985l-3.671875 0l0 18.95311l12.546875 0l0 -2.953125l-8.875 0zm11.715088 -4.21875l0 0.28125q0 1.546875 0.4375 2.859375q0.4375 1.296875 1.296875 2.265625q0.859375 0.953125 2.09375 1.5q1.25 0.53125 2.828125 0.53125q1.578125 0 2.8125 -0.53125q1.234375 -0.546875 2.09375 -1.5q0.84375 -0.96875 1.28125 -2.265625q0.4375 -1.3125 0.4375 -2.859375l0 -0.28125q0 -1.53125 -0.4375 -2.84375q-0.4375 -1.3125 -1.28125 -2.265625q-0.859375 -0.96875 -2.109375 -1.515625q-1.234375 -0.546875 -2.8125 -0.546875q-1.59375 0 -2.828125 0.546875q-1.21875 0.546875 -2.078125 1.515625q-0.859375 0.953125 -1.296875 2.265625q-0.4375 1.3125 -0.4375 2.84375zm3.609375 0.28125l0 -0.28125q0 -0.859375 0.171875 -1.625q0.171875 -0.765625 0.53125 -1.359375q0.375 -0.578125 0.9375 -0.921875q0.578125 -0.34375 1.390625 -0.34375q0.8125 0 1.375 0.34375q0.578125 0.34375 0.953125 0.921875q0.34375 0.59375 0.515625 1.359375q0.171875 0.765625 0.171875 1.625l0 0.28125q0 0.875 -0.171875 1.65625q-0.171875 0.765625 -0.515625 1.34375q-0.375 0.578125 -0.953125 0.921875q-0.5625 0.34375 -1.359375 0.34375q-0.8125 0 -1.390625 -0.34375q-0.578125 -0.34375 -0.953125 -0.921875q-0.359375 -0.578125 -0.53125 -1.34375q-0.171875 -0.78125 -0.171875 -1.65625zm12.511993 -0.25l0 0.265625q0 1.53125 0.390625 2.84375q0.40625 1.3125 1.140625 2.265625q0.75 0.953125 1.796875 1.5q1.046875 0.53125 2.359375 0.53125q0.671875 0 1.25 -0.15625q0.578125 -0.140625 1.0625 -0.390625q0.3125 -0.1875 0.59375 -0.421875q0.296875 -0.234375 0.5625 -0.515625l0 0.796875q0 0.71875 -0.203125 1.28125q-0.203125 0.5781555 -0.578125 0.9687805q-0.421875 0.4375 -1.046875 0.65625q-0.609375 0.21875 -1.40625 0.21875q-0.5 0 -0.96875 -0.09375q-0.453125 -0.09375 -0.875 -0.296875q-0.4375 -0.1875 -0.84375 -0.5q-0.40625 -0.296875 -0.765625 -0.7031555l-1.625 2.2031555q0.453125 0.578125 1.09375 1.0q0.640625 0.421875 1.359375 0.703125q0.71875 0.265625 1.4375 0.390625q0.734375 0.140625 1.375 0.140625q1.484375 0 2.703125 -0.40625q1.234375 -0.390625 2.125 -1.15625q0.875 -0.765625 1.359375 -1.890625q0.484375 -1.1250305 0.484375 -2.5469055l0 -13.625l-3.296875 0l-0.140625 1.328125q-0.25 -0.3125 -0.5625 -0.578125q-0.3125 -0.265625 -0.6875 -0.46875q-0.484375 -0.265625 -1.078125 -0.40625q-0.578125 -0.140625 -1.296875 -0.140625q-1.328125 0 -2.390625 0.53125q-1.046875 0.515625 -1.796875 1.453125q-0.734375 0.953125 -1.140625 2.28125q-0.390625 1.328125 -0.390625 2.9375zm3.640625 0.265625l0 -0.265625q0 -0.890625 0.171875 -1.65625q0.1875 -0.78125 0.5625 -1.375q0.359375 -0.5625 0.921875 -0.890625q0.5625 -0.34375 1.328125 -0.34375q0.421875 0 0.78125 0.078125q0.359375 0.078125 0.65625 0.21875q0.34375 0.171875 0.609375 0.453125q0.28125 0.265625 0.484375 0.640625l0 5.953125q-0.1875 0.328125 -0.4375 0.59375q-0.25 0.25 -0.5625 0.4375q-0.3125 0.171875 -0.703125 0.265625q-0.390625 0.078125 -0.859375 0.078125q-0.765625 0 -1.328125 -0.3125q-0.546875 -0.328125 -0.921875 -0.90625q-0.359375 -0.5625 -0.53125 -1.3125q-0.171875 -0.765625 -0.171875 -1.65625zm13.683838 -7.203125l0 2.953125l4.015625 0l0 8.1875l-4.015625 0l0 2.9375l11.484375 0l0 -2.9375l-3.8125 0l0 -11.140625l-7.671875 0zm3.75 -3.6093597q0 0.421875 0.140625 0.78125q0.15625 0.34375 0.4375 0.59375q0.265625 0.265625 0.640625 0.40623474q0.390625 0.140625 0.859375 0.140625q0.96875 0 1.53125 -0.53123474q0.5625 -0.546875 0.5625 -1.390625q0 -0.84375 -0.5625 -1.375q-0.5625 -0.546875 -1.53125 -0.546875q-0.46875 0 -0.859375 0.140625q-0.375 0.140625 -0.640625 0.390625q-0.28125 0.25 -0.4375 0.609375q-0.140625 0.359375 -0.140625 0.78125zm17.511963 15.062485q-0.859375 0 -1.4375 -0.34375q-0.5625 -0.359375 -0.890625 -0.953125q-0.328125 -0.5625 -0.46875 -1.328125q-0.125 -0.765625 -0.125 -1.578125l0 -0.390625q0 -0.8125 0.140625 -1.5625q0.140625 -0.765625 0.46875 -1.34375q0.328125 -0.59375 0.890625 -0.9375q0.5625 -0.359375 1.421875 -0.359375q0.578125 0 1.0625 0.203125q0.5 0.203125 0.859375 0.546875q0.34375 0.34375 0.53125 0.8125q0.1875 0.46875 0.15625 0.984375l3.40625 0q0.03125 -1.25 -0.421875 -2.25q-0.4375 -1.015625 -1.21875 -1.734375q-0.8125 -0.703125 -1.921875 -1.09375q-1.109375 -0.390625 -2.40625 -0.390625q-1.625 0 -2.859375 0.5625q-1.234375 0.5625 -2.0625 1.515625q-0.828125 0.96875 -1.25 2.265625q-0.421875 1.296875 -0.421875 2.78125l0 0.390625q0 1.484375 0.421875 2.78125q0.4375 1.28125 1.265625 2.25q0.8125 0.96875 2.046875 1.515625q1.25 0.546875 2.890625 0.546875q1.203125 0 2.28125 -0.375q1.09375 -0.390625 1.921875 -1.0625q0.8125 -0.671875 1.28125 -1.609375q0.484375 -0.9375 0.453125 -2.03125l-3.40625 0q0.03125 0.484375 -0.171875 0.890625q-0.203125 0.40625 -0.5625 0.6875q-0.375 0.296875 -0.859375 0.453125q-0.46875 0.15625 -1.015625 0.15625zm18.574524 2.625l3.65625 0l0 -0.21875q-0.265625 -0.53125 -0.40625 -1.265625q-0.140625 -0.75 -0.140625 -1.890625l0 -6.03125q0 -1.234375 -0.46875 -2.15625q-0.453125 -0.9375 -1.25 -1.546875q-0.8125 -0.609375 -1.921875 -0.921875q-1.09375 -0.3125 -2.359375 -0.3125q-1.421875 0 -2.53125 0.359375q-1.09375 0.359375 -1.84375 0.96875q-0.765625 0.609375 -1.171875 1.421875q-0.390625 0.796875 -0.390625 1.703125l3.609375 0q0 -0.375 0.109375 -0.6875q0.125 -0.3125 0.359375 -0.53125q0.25 -0.25 0.65625 -0.390625q0.421875 -0.140625 1.0 -0.140625q0.65625 0 1.140625 0.171875q0.484375 0.15625 0.8125 0.453125q0.3125 0.296875 0.46875 0.6875q0.15625 0.390625 0.15625 0.890625l0 0.828125l-2.015625 0q-1.5625 0 -2.765625 0.28125q-1.203125 0.28125 -2.03125 0.8125q-0.90625 0.59375 -1.359375 1.5q-0.453125 0.90625 -0.453125 2.078125q0 0.90625 0.359375 1.6875q0.359375 0.765625 1.015625 1.328125q0.65625 0.5625 1.5625 0.875q0.90625 0.3125 1.984375 0.3125q0.65625 0 1.21875 -0.125q0.578125 -0.125 1.0625 -0.34375q0.46875 -0.21875 0.859375 -0.5q0.390625 -0.28125 0.6875 -0.609375q0.078125 0.375 0.15625 0.71875q0.09375 0.328125 0.234375 0.59375zm-3.453125 -2.53125q-0.515625 0 -0.90625 -0.125q-0.375 -0.125 -0.625 -0.34375q-0.265625 -0.21875 -0.40625 -0.53125q-0.140625 -0.328125 -0.140625 -0.703125q0 -0.484375 0.1875 -0.890625q0.1875 -0.40625 0.5625 -0.703125q0.375 -0.296875 0.96875 -0.453125q0.609375 -0.15625 1.453125 -0.15625l1.84375 0l0 2.421875q-0.15625 0.265625 -0.4375 0.53125q-0.265625 0.265625 -0.640625 0.484375q-0.375 0.203125 -0.84375 0.34375q-0.46875 0.125 -1.015625 0.125zm11.402588 -17.468735l0 2.96875l4.21875 0l0 14.093735l-4.21875 0l0 2.9375l11.90625 0l0 -2.9375l-4.03125 0l0 -17.062485l-7.875 0z" fill-rule="nonzero"/><path fill="#000000" d="m483.18582 284.98282l-3.625 0l-0.015625 12.5625q-0.015625 0.921875 -0.203125 1.625q-0.171875 0.703125 -0.546875 1.171875q-0.328125 0.453125 -0.84375 0.6875q-0.515625 0.21875 -1.1875 0.21875q-0.609375 0 -1.078125 -0.203125q-0.46875 -0.21875 -0.78125 -0.65625q-0.359375 -0.46875 -0.53125 -1.171875q-0.171875 -0.71875 -0.1875 -1.671875l-0.015625 -12.5625l-3.65625 0l-0.015625 12.5625q0 1.59375 0.4375 2.84375q0.453125 1.234375 1.28125 2.078125q0.8125 0.84375 1.96875 1.296875q1.15625 0.4375 2.578125 0.4375q1.53125 0 2.71875 -0.4375q1.1875 -0.453125 2.03125 -1.3125q0.8125 -0.84375 1.25 -2.078125q0.4375 -1.234375 0.4375 -2.828125l-0.015625 -12.5625zm3.496338 18.953125l3.640625 0l0 -10.015625q0.1875 -0.28125 0.40625 -0.515625q0.21875 -0.234375 0.484375 -0.40625q0.34375 -0.234375 0.78125 -0.34375q0.4375 -0.125 0.953125 -0.125q0.625 0 1.109375 0.125q0.5 0.125 0.859375 0.4375q0.34375 0.3125 0.53125 0.859375q0.203125 0.53125 0.203125 1.375l0 8.609375l3.609375 0l0 -8.671875q0 -1.53125 -0.359375 -2.609375q-0.359375 -1.078125 -0.984375 -1.765625q-0.65625 -0.671875 -1.546875 -0.984375q-0.875 -0.3125 -1.953125 -0.3125q-0.828125 0 -1.578125 0.234375q-0.734375 0.234375 -1.359375 0.671875q-0.359375 0.265625 -0.6875 0.59375q-0.328125 0.328125 -0.59375 0.71875l-0.234375 -1.953125l-3.28125 0l0 14.078125zm16.965118 -14.078125l0 2.953125l4.015625 0l0 8.1875l-4.015625 0l0 2.9375l11.484375 0l0 -2.9375l-3.8125 0l0 -11.140625l-7.671875 0zm3.75 -3.609375q0 0.421875 0.140625 0.78125q0.15625 0.34375 0.4375 0.59375q0.265625 0.265625 0.640625 0.40625q0.390625 0.140625 0.859375 0.140625q0.96875 0 1.53125 -0.53125q0.5625 -0.546875 0.5625 -1.390625q0 -0.84375 -0.5625 -1.375q-0.5625 -0.546875 -1.53125 -0.546875q-0.46875 0 -0.859375 0.140625q-0.375 0.140625 -0.640625 0.390625q-0.28125 0.25 -0.4375 0.609375q-0.140625 0.359375 -0.140625 0.78125zm17.918213 0.15625l-3.609375 0l0 3.453125l-3.21875 0l0 2.65625l3.21875 0l0 6.40625q0 1.390625 0.359375 2.390625q0.359375 1.0 1.046875 1.640625q0.65625 0.640625 1.59375 0.953125q0.953125 0.296875 2.109375 0.296875q0.59375 0 1.21875 -0.0625q0.625 -0.046875 1.1875 -0.15625q0.578125 -0.09375 1.078125 -0.25q0.515625 -0.171875 0.890625 -0.390625l-0.359375 -2.484375q-0.234375 0.0625 -0.578125 0.125q-0.34375 0.0625 -0.734375 0.109375q-0.40625 0.078125 -0.84375 0.125q-0.4375 0.03125 -0.859375 0.03125q-0.5625 0 -1.03125 -0.125q-0.46875 -0.140625 -0.78125 -0.453125q-0.328125 -0.296875 -0.515625 -0.8125q-0.171875 -0.515625 -0.171875 -1.28125l0 -6.0625l5.265625 0l0 -2.65625l-5.265625 0l0 -3.453125z" fill-rule="nonzero"/><path fill="#f3e0b5" d="m388.45663 361.58267l224.78738 0l0 48.15747l-224.78738 0z" fill-rule="evenodd"/><path stroke="#000000" stroke-width="3.0" stroke-linejoin="round" stroke-linecap="butt" d="m388.45663 361.58267l224.78738 0l0 48.15747l-224.78738 0z" fill-rule="evenodd"/><path fill="#000000" d="m419.07352 376.3083l-4.546875 0l0 18.953125l3.359375 0l0 -5.609375l-0.15625 -8.515625l2.21875 7.875l1.8125 0l2.484375 -8.21875l-0.15625 8.859375l0 5.609375l3.359375 0l0 -18.953125l-4.546875 0l-2.046875 7.125l-1.78125 -7.125zm18.465088 19.21875q2.046875 0 3.53125 -0.796875q1.5 -0.796875 2.1875 -1.765625l-1.796875 -1.953125q-0.625 0.796875 -1.640625 1.203125q-1.0 0.40625 -2.0625 0.40625q-0.75 0 -1.390625 -0.234375q-0.640625 -0.234375 -1.140625 -0.671875q-0.46875 -0.40625 -0.765625 -0.921875q-0.28125 -0.515625 -0.46875 -1.359375l0 -0.046875l9.5625 0l0 -1.53125q0 -1.546875 -0.4375 -2.828125q-0.421875 -1.28125 -1.25 -2.203125q-0.828125 -0.90625 -2.03125 -1.40625q-1.1875 -0.5 -2.703125 -0.5q-1.46875 0 -2.71875 0.53125q-1.25 0.53125 -2.15625 1.5q-0.921875 0.96875 -1.4375 2.296875q-0.5 1.328125 -0.5 2.953125l0 0.515625q0 1.421875 0.515625 2.671875q0.515625 1.234375 1.46875 2.140625q0.953125 0.921875 2.28125 1.46875q1.328125 0.53125 2.953125 0.53125zm-0.4375 -11.6875q0.6875 0 1.21875 0.21875q0.53125 0.21875 0.890625 0.578125q0.375 0.375 0.578125 0.890625q0.203125 0.5 0.203125 1.078125l0 0.28125l-5.9375 0q0.140625 -0.6875 0.390625 -1.234375q0.265625 -0.5625 0.65625 -0.96875q0.375 -0.40625 0.875 -0.625q0.515625 -0.21875 1.125 -0.21875zm11.855743 -2.65625l-3.125 0l0 14.078125l3.296875 0l0 -10.546875q0.0625 -0.171875 0.140625 -0.3125q0.078125 -0.140625 0.1875 -0.25q0.140625 -0.140625 0.328125 -0.21875q0.1875 -0.078125 0.421875 -0.078125q0.203125 0 0.375 0.0625q0.1875 0.0625 0.328125 0.203125q0.140625 0.140625 0.21875 0.40625q0.078125 0.25 0.078125 0.65625l0 10.078125l3.1875 0l0 -10.390625q0 -0.15625 0 -0.234375q0 -0.09375 0 -0.125q0.0625 -0.140625 0.15625 -0.25q0.09375 -0.109375 0.203125 -0.203125q0.140625 -0.09375 0.296875 -0.140625q0.171875 -0.0625 0.375 -0.0625q0.203125 0 0.390625 0.0625q0.1875 0.0625 0.328125 0.203125q0.140625 0.15625 0.21875 0.421875q0.09375 0.25 0.09375 0.65625l0 10.0625l3.296875 0l0 -10.046875q0 -1.171875 -0.234375 -1.984375q-0.21875 -0.8125 -0.625 -1.328125q-0.421875 -0.515625 -0.96875 -0.75q-0.546875 -0.234375 -1.1875 -0.234375q-0.515625 0 -0.953125 0.140625q-0.421875 0.125 -0.75 0.359375q-0.28125 0.171875 -0.515625 0.4375q-0.21875 0.25 -0.40625 0.5625q-0.109375 -0.328125 -0.28125 -0.578125q-0.15625 -0.25 -0.375 -0.4375q-0.296875 -0.25 -0.6875 -0.359375q-0.390625 -0.125 -0.875 -0.125q-1.015625 0 -1.734375 0.53125q-0.703125 0.515625 -1.109375 1.4375l-0.09375 -1.703125zm13.246338 6.90625l0 0.28125q0 1.546875 0.4375 2.859375q0.4375 1.296875 1.296875 2.265625q0.859375 0.953125 2.09375 1.5q1.25 0.53125 2.828125 0.53125q1.578125 0 2.8125 -0.53125q1.234375 -0.546875 2.09375 -1.5q0.84375 -0.96875 1.28125 -2.265625q0.4375 -1.3125 0.4375 -2.859375l0 -0.28125q0 -1.53125 -0.4375 -2.84375q-0.4375 -1.3125 -1.28125 -2.265625q-0.859375 -0.96875 -2.109375 -1.515625q-1.234375 -0.546875 -2.8125 -0.546875q-1.59375 0 -2.828125 0.546875q-1.21875 0.546875 -2.078125 1.515625q-0.859375 0.953125 -1.296875 2.265625q-0.4375 1.3125 -0.4375 2.84375zm3.609375 0.28125l0 -0.28125q0 -0.859375 0.171875 -1.625q0.171875 -0.765625 0.53125 -1.359375q0.375 -0.578125 0.9375 -0.921875q0.578125 -0.34375 1.390625 -0.34375q0.8125 0 1.375 0.34375q0.578125 0.34375 0.953125 0.921875q0.34375 0.59375 0.515625 1.359375q0.171875 0.765625 0.171875 1.625l0 0.28125q0 0.875 -0.171875 1.65625q-0.171875 0.765625 -0.515625 1.34375q-0.375 0.578125 -0.953125 0.921875q-0.5625 0.34375 -1.359375 0.34375q-0.8125 0 -1.390625 -0.34375q-0.578125 -0.34375 -0.953125 -0.921875q-0.359375 -0.578125 -0.53125 -1.34375q-0.171875 -0.78125 -0.171875 -1.65625zm22.996368 -7.453125q-1.421875 0 -2.625 0.6875q-1.1875 0.671875 -2.046875 1.875l-0.03125 -0.3125l-0.140625 -1.984375l-3.375 0l0 14.078125l3.625 0l0 -8.453125q0.234375 -0.609375 0.609375 -1.046875q0.390625 -0.4375 0.921875 -0.734375q0.4375 -0.25 1.0 -0.359375q0.578125 -0.125 1.28125 -0.125q0.671875 0 1.421875 0.078125q0.75 0.078125 1.46875 0.25l0.53125 -3.59375q-0.4375 -0.140625 -1.140625 -0.25q-0.6875 -0.109375 -1.5 -0.109375zm8.105713 20.03125q1.09375 0 1.890625 -0.375q0.796875 -0.359375 1.359375 -0.890625q0.5625 -0.53125 0.921875 -1.15625q0.375 -0.625 0.609375 -1.15625l7.15625 -16.1875l-4.0 0l-3.21875 8.265625l-0.53125 1.40625l-0.390625 -1.421875l-3.21875 -8.25l-3.96875 0l5.96875 13.484375l-0.828125 1.546875q-0.15625 0.28125 -0.28125 0.4375q-0.109375 0.15625 -0.34375 0.46875q-0.234375 0.3125 -0.5625 0.578125q-0.328125 0.265625 -0.765625 0.265625q-0.203125 0 -0.546875 -0.015625q-0.34375 -0.015625 -0.5625 -0.015625l-0.453125 2.75q0.46875 0.140625 0.859375 0.203125q0.390625 0.0625 0.90625 0.0625zm42.25833 -24.640625l-3.625 0l-0.015625 12.5625q-0.015625 0.921875 -0.203125 1.625q-0.171875 0.703125 -0.546875 1.171875q-0.328125 0.453125 -0.84375 0.6875q-0.515625 0.21875 -1.1875 0.21875q-0.609375 0 -1.078125 -0.203125q-0.46875 -0.21875 -0.78125 -0.65625q-0.359375 -0.46875 -0.53125 -1.171875q-0.171875 -0.71875 -0.1875 -1.671875l-0.015625 -12.5625l-3.65625 0l-0.015625 12.5625q0 1.59375 0.4375 2.84375q0.453125 1.234375 1.28125 2.078125q0.8125 0.84375 1.96875 1.296875q1.15625 0.4375 2.578125 0.4375q1.53125 0 2.71875 -0.4375q1.1875 -0.453125 2.03125 -1.3125q0.8125 -0.84375 1.25 -2.078125q0.4375 -1.234375 0.4375 -2.828125l-0.015625 -12.5625zm3.496338 18.953125l3.640625 0l0 -10.015625q0.1875 -0.28125 0.40625 -0.515625q0.21875 -0.234375 0.484375 -0.40625q0.34375 -0.234375 0.78125 -0.34375q0.4375 -0.125 0.953125 -0.125q0.625 0 1.109375 0.125q0.5 0.125 0.859375 0.4375q0.34375 0.3125 0.53125 0.859375q0.203125 0.53125 0.203125 1.375l0 8.609375l3.609375 0l0 -8.671875q0 -1.53125 -0.359375 -2.609375q-0.359375 -1.078125 -0.984375 -1.765625q-0.65625 -0.671875 -1.546875 -0.984375q-0.875 -0.3125 -1.953125 -0.3125q-0.828125 0 -1.578125 0.234375q-0.734375 0.234375 -1.359375 0.671875q-0.359375 0.265625 -0.6875 0.59375q-0.328125 0.328125 -0.59375 0.71875l-0.234375 -1.953125l-3.28125 0l0 14.078125zm16.965149 -14.078125l0 2.953125l4.015625 0l0 8.1875l-4.015625 0l0 2.9375l11.484375 0l0 -2.9375l-3.8125 0l0 -11.140625l-7.671875 0zm3.75 -3.609375q0 0.421875 0.140625 0.78125q0.15625 0.34375 0.4375 0.59375q0.265625 0.265625 0.640625 0.40625q0.390625 0.140625 0.859375 0.140625q0.96875 0 1.53125 -0.53125q0.5625 -0.546875 0.5625 -1.390625q0 -0.84375 -0.5625 -1.375q-0.5625 -0.546875 -1.53125 -0.546875q-0.46875 0 -0.859375 0.140625q-0.375 0.140625 -0.640625 0.390625q-0.28125 0.25 -0.4375 0.609375q-0.140625 0.359375 -0.140625 0.78125zm17.918213 0.15625l-3.609375 0l0 3.453125l-3.21875 0l0 2.65625l3.21875 0l0 6.40625q0 1.390625 0.359375 2.390625q0.359375 1.0 1.046875 1.640625q0.65625 0.640625 1.59375 0.953125q0.953125 0.296875 2.109375 0.296875q0.59375 0 1.21875 -0.0625q0.625 -0.046875 1.1875 -0.15625q0.578125 -0.09375 1.078125 -0.25q0.515625 -0.171875 0.890625 -0.390625l-0.359375 -2.484375q-0.234375 0.0625 -0.578125 0.125q-0.34375 0.0625 -0.734375 0.109375q-0.40625 0.078125 -0.84375 0.125q-0.4375 0.03125 -0.859375 0.03125q-0.5625 0 -1.03125 -0.125q-0.46875 -0.140625 -0.78125 -0.453125q-0.328125 -0.296875 -0.515625 -0.8125q-0.171875 -0.515625 -0.171875 -1.28125l0 -6.0625l5.265625 0l0 -2.65625l-5.265625 0l0 -3.453125z" fill-rule="nonzero"/><path fill="#fef200" d="m409.52783 20.598305l164.66144 0l0 48.15748l-164.66144 0z" fill-rule="evenodd"/><path stroke="#000000" stroke-width="3.0" stroke-linejoin="round" stroke-linecap="butt" d="m409.52783 20.598305l164.66144 0l0 48.15748l-164.66144 0z" fill-rule="evenodd"/><path fill="#000000" d="m482.7234 48.339542l-3.65625 0q-0.046875 0.859375 -0.28125 1.46875q-0.234375 0.609375 -0.640625 1.0q-0.40625 0.390625 -0.984375 0.578125q-0.5625 0.1875 -1.28125 0.1875q-0.53125 0 -0.96875 -0.125q-0.4375 -0.125 -0.78125 -0.390625q-0.328125 -0.234375 -0.59375 -0.578125q-0.25 -0.359375 -0.421875 -0.8125q-0.265625 -0.65625 -0.390625 -1.546875q-0.125 -0.890625 -0.125 -2.03125l0 -2.578125q0 -0.828125 0.078125 -1.546875q0.078125 -0.734375 0.25 -1.328125q0.21875 -0.765625 0.59375 -1.34375q0.375 -0.578125 0.90625 -0.890625q0.3125 -0.1875 0.671875 -0.28125q0.375 -0.09375 0.8125 -0.09375q0.796875 0 1.375 0.21875q0.59375 0.21875 0.984375 0.640625q0.375 0.421875 0.578125 1.0625q0.203125 0.640625 0.25 1.484375l3.640625 0q-0.125 -1.484375 -0.625 -2.671875q-0.5 -1.1875 -1.34375 -2.0q-0.859375 -0.828125 -2.078125 -1.265625q-1.21875 -0.4375 -2.78125 -0.4375q-1.0625 0 -1.984375 0.265625q-0.90625 0.265625 -1.671875 0.75q-0.859375 0.59375 -1.546875 1.4375q-0.671875 0.84375 -1.09375 1.921875q-0.359375 0.890625 -0.546875 1.921875q-0.171875 1.03125 -0.171875 2.1875l0 2.546875q0 1.21875 0.203125 2.3125q0.203125 1.09375 0.578125 2.015625q0.390625 0.90625 0.953125 1.671875q0.5625 0.75 1.296875 1.28125q0.796875 0.5625 1.78125 0.875q1.0 0.296875 2.171875 0.296875q1.484375 0 2.703125 -0.421875q1.234375 -0.4375 2.109375 -1.25q0.890625 -0.8125 1.40625 -1.953125q0.53125 -1.140625 0.625 -2.578125zm6.7307434 -1.015625l2.828125 0q1.546875 0 2.796875 -0.4375q1.25 -0.4375 2.140625 -1.234375q0.859375 -0.78125 1.328125 -1.859375q0.484375 -1.09375 0.484375 -2.359375q0 -1.375 -0.484375 -2.484375q-0.46875 -1.125 -1.328125 -1.9375q-0.890625 -0.78125 -2.140625 -1.234375q-1.25 -0.453125 -2.796875 -0.453125l-6.484375 0l0 18.953125l3.65625 0l0 -6.953125zm0 -2.96875l0 -6.0625l2.828125 0q0.78125 0 1.34375 0.25q0.578125 0.25 0.96875 0.671875q0.375 0.4375 0.5625 1.015625q0.203125 0.5625 0.203125 1.21875q0 0.578125 -0.203125 1.109375q-0.1875 0.53125 -0.5625 0.921875q-0.390625 0.40625 -0.96875 0.640625q-0.5625 0.234375 -1.34375 0.234375l-2.828125 0zm24.730743 -9.03125l-3.6250305 0l-0.015625 12.5625q-0.015625 0.921875 -0.203125 1.625q-0.171875 0.703125 -0.546875 1.171875q-0.328125 0.453125 -0.84375 0.6875q-0.515625 0.21875 -1.1875 0.21875q-0.609375 0 -1.078125 -0.203125q-0.46875 -0.21875 -0.78125 -0.65625q-0.359375 -0.46875 -0.53125 -1.171875q-0.171875 -0.71875 -0.1875 -1.671875l-0.015625 -12.5625l-3.65625 0l-0.015625 12.5625q0 1.59375 0.4375 2.84375q0.453125 1.234375 1.28125 2.078125q0.8125 0.84375 1.96875 1.296875q1.15625 0.4375 2.578125 0.4375q1.53125 0 2.71875 -0.4375q1.1875 -0.453125 2.0312805 -1.3125q0.8125 -0.84375 1.25 -2.078125q0.4375 -1.234375 0.4375 -2.828125l-0.015625 -12.5625z" fill-rule="nonzero"/><path fill="#f3e0b5" d="m388.45697 114.93128l224.78741 0l0 48.15748l-224.78741 0z" fill-rule="evenodd"/><path stroke="#000000" stroke-width="3.0" stroke-linejoin="round" stroke-linecap="butt" d="m388.45697 114.93128l224.78741 0l0 48.15748l-224.78741 0z" fill-rule="evenodd"/><path fill="#000000" d="m419.73193 142.67252l-3.65625 0q-0.046875 0.859375 -0.28125 1.46875q-0.234375 0.609375 -0.640625 1.0q-0.40625 0.390625 -0.984375 0.578125q-0.5625 0.1875 -1.28125 0.1875q-0.53125 0 -0.96875 -0.125q-0.4375 -0.125 -0.78125 -0.390625q-0.328125 -0.234375 -0.59375 -0.578125q-0.25 -0.359375 -0.421875 -0.8125q-0.265625 -0.65625 -0.390625 -1.546875q-0.125 -0.890625 -0.125 -2.03125l0 -2.578125q0 -0.828125 0.078125 -1.546875q0.078125 -0.734375 0.25 -1.328125q0.21875 -0.765625 0.59375 -1.34375q0.375 -0.578125 0.90625 -0.890625q0.3125 -0.1875 0.671875 -0.28125q0.375 -0.09375 0.8125 -0.09375q0.796875 0 1.375 0.21875q0.59375 0.21875 0.984375 0.640625q0.375 0.421875 0.578125 1.0625q0.203125 0.640625 0.25 1.484375l3.640625 0q-0.125 -1.484375 -0.625 -2.671875q-0.5 -1.1875 -1.34375 -2.0q-0.859375 -0.828125 -2.078125 -1.265625q-1.21875 -0.4375 -2.78125 -0.4375q-1.0625 0 -1.984375 0.265625q-0.90625 0.265625 -1.671875 0.75q-0.859375 0.59375 -1.546875 1.4375q-0.671875 0.84375 -1.09375 1.921875q-0.359375 0.890625 -0.546875 1.921875q-0.171875 1.03125 -0.171875 2.1875l0 2.546875q0 1.21875 0.203125 2.3125q0.203125 1.09375 0.578125 2.015625q0.390625 0.90625 0.953125 1.671875q0.5625 0.75 1.296875 1.28125q0.796875 0.5625 1.78125 0.875q1.0 0.296875 2.171875 0.296875q1.484375 0 2.703125 -0.421875q1.234375 -0.4375 2.109375 -1.25q0.890625 -0.8125 1.40625 -1.953125q0.53125 -1.140625 0.625 -2.578125zm2.4807434 -1.234375l0 0.28125q0 1.546875 0.4375 2.859375q0.4375 1.296875 1.296875 2.265625q0.859375 0.953125 2.09375 1.5q1.25 0.53125 2.828125 0.53125q1.578125 0 2.8125 -0.53125q1.234375 -0.546875 2.09375 -1.5q0.84375 -0.96875 1.28125 -2.265625q0.4375 -1.3125 0.4375 -2.859375l0 -0.28125q0 -1.53125 -0.4375 -2.84375q-0.4375 -1.3125 -1.28125 -2.265625q-0.859375 -0.96875 -2.109375 -1.515625q-1.234375 -0.546875 -2.8125 -0.546875q-1.59375 0 -2.828125 0.546875q-1.21875 0.546875 -2.078125 1.515625q-0.859375 0.953125 -1.296875 2.265625q-0.4375 1.3125 -0.4375 2.84375zm3.609375 0.28125l0 -0.28125q0 -0.859375 0.171875 -1.625q0.171875 -0.765625 0.53125 -1.359375q0.375 -0.578125 0.9375 -0.921875q0.578125 -0.34375 1.390625 -0.34375q0.8125 0 1.375 0.34375q0.578125 0.34375 0.953125 0.921875q0.34375 0.59375 0.515625 1.359375q0.171875 0.765625 0.171875 1.625l0 0.28125q0 0.875 -0.171875 1.65625q-0.171875 0.765625 -0.515625 1.34375q-0.375 0.578125 -0.953125 0.921875q-0.5625 0.34375 -1.359375 0.34375q-0.8125 0 -1.390625 -0.34375q-0.578125 -0.34375 -0.953125 -0.921875q-0.359375 -0.578125 -0.53125 -1.34375q-0.171875 -0.78125 -0.171875 -1.65625zm12.871338 6.890625l3.640625 0l0 -10.015625q0.1875 -0.28125 0.40625 -0.515625q0.21875 -0.234375 0.484375 -0.40625q0.34375 -0.234375 0.78125 -0.34375q0.4375 -0.125 0.953125 -0.125q0.625 0 1.109375 0.125q0.5 0.125 0.859375 0.4375q0.34375 0.3125 0.53125 0.859375q0.203125 0.53125 0.203125 1.375l0 8.609375l3.609375 0l0 -8.671875q0 -1.53125 -0.359375 -2.609375q-0.359375 -1.078125 -0.984375 -1.765625q-0.65625 -0.671875 -1.546875 -0.984375q-0.875 -0.3125 -1.953125 -0.3125q-0.828125 0 -1.578125 0.234375q-0.734375 0.234375 -1.359375 0.671875q-0.359375 0.265625 -0.6875 0.59375q-0.328125 0.328125 -0.59375 0.71875l-0.234375 -1.953125l-3.28125 0l0 14.078125zm22.636993 -17.53125l-3.609375 0l0 3.453125l-3.21875 0l0 2.65625l3.21875 0l0 6.40625q0 1.390625 0.359375 2.390625q0.359375 1.0 1.046875 1.640625q0.65625 0.640625 1.59375 0.953125q0.953125 0.296875 2.109375 0.296875q0.59375 0 1.21875 -0.0625q0.625 -0.046875 1.1875 -0.15625q0.578125 -0.09375 1.078125 -0.25q0.515625 -0.171875 0.890625 -0.390625l-0.359375 -2.484375q-0.234375 0.0625 -0.578125 0.125q-0.34375 0.0625 -0.734375 0.109375q-0.40625 0.078125 -0.84375 0.125q-0.4375 0.03125 -0.859375 0.03125q-0.5625 0 -1.03125 -0.125q-0.46875 -0.140625 -0.78125 -0.453125q-0.328125 -0.296875 -0.515625 -0.8125q-0.171875 -0.515625 -0.171875 -1.28125l0 -6.0625l5.265625 0l0 -2.65625l-5.265625 0l0 -3.453125zm19.480713 3.1875q-1.421875 0 -2.625 0.6875q-1.1875 0.671875 -2.046875 1.875l-0.03125 -0.3125l-0.140625 -1.984375l-3.375 0l0 14.078125l3.625 0l0 -8.453125q0.234375 -0.609375 0.609375 -1.046875q0.390625 -0.4375 0.921875 -0.734375q0.4375 -0.25 1.0 -0.359375q0.578125 -0.125 1.28125 -0.125q0.671875 0 1.421875 0.078125q0.75 0.078125 1.46875 0.25l0.53125 -3.59375q-0.4375 -0.140625 -1.140625 -0.25q-0.6875 -0.109375 -1.5 -0.109375zm5.3869934 7.171875l0 0.28125q0 1.546875 0.4375 2.859375q0.4375 1.296875 1.296875 2.265625q0.859375 0.953125 2.09375 1.5q1.25 0.53125 2.828125 0.53125q1.578125 0 2.8125 -0.53125q1.234375 -0.546875 2.09375 -1.5q0.84375 -0.96875 1.28125 -2.265625q0.4375 -1.3125 0.4375 -2.859375l0 -0.28125q0 -1.53125 -0.4375 -2.84375q-0.4375 -1.3125 -1.28125 -2.265625q-0.859375 -0.96875 -2.109375 -1.515625q-1.234375 -0.546875 -2.8125 -0.546875q-1.59375 0 -2.828125 0.546875q-1.21875 0.546875 -2.078125 1.515625q-0.859375 0.953125 -1.296875 2.265625q-0.4375 1.3125 -0.4375 2.84375zm3.609375 0.28125l0 -0.28125q0 -0.859375 0.171875 -1.625q0.171875 -0.765625 0.53125 -1.359375q0.375 -0.578125 0.9375 -0.921875q0.578125 -0.34375 1.390625 -0.34375q0.8125 0 1.375 0.34375q0.578125 0.34375 0.953125 0.921875q0.34375 0.59375 0.515625 1.359375q0.171875 0.765625 0.171875 1.625l0 0.28125q0 0.875 -0.171875 1.65625q-0.171875 0.765625 -0.515625 1.34375q-0.375 0.578125 -0.953125 0.921875q-0.5625 0.34375 -1.359375 0.34375q-0.8125 0 -1.390625 -0.34375q-0.578125 -0.34375 -0.953125 -0.921875q-0.359375 -0.578125 -0.53125 -1.34375q-0.171875 -0.78125 -0.171875 -1.65625zm13.636963 -13.109375l0 2.96875l4.21875 0l0 14.09375l-4.21875 0l0 2.9375l11.9062805 0l0 -2.9375l-4.0312805 0l0 -17.0625l-7.875 0zm43.72708 1.046875l-3.625 0l-0.015625 12.5625q-0.015625 0.921875 -0.203125 1.625q-0.171875 0.703125 -0.546875 1.171875q-0.328125 0.453125 -0.84375 0.6875q-0.515625 0.21875 -1.1875 0.21875q-0.609375 0 -1.078125 -0.203125q-0.46875 -0.21875 -0.78125 -0.65625q-0.359375 -0.46875 -0.53125 -1.171875q-0.171875 -0.71875 -0.1875 -1.671875l-0.015625 -12.5625l-3.65625 0l-0.015625 12.5625q0 1.59375 0.4375 2.84375q0.453125 1.234375 1.28125 2.078125q0.8125 0.84375 1.96875 1.296875q1.15625 0.4375 2.578125 0.4375q1.53125 0 2.71875 -0.4375q1.1875 -0.453125 2.03125 -1.3125q0.8125 -0.84375 1.25 -2.078125q0.4375 -1.234375 0.4375 -2.828125l-0.015625 -12.5625zm3.496338 18.953125l3.640625 0l0 -10.015625q0.1875 -0.28125 0.40625 -0.515625q0.21875 -0.234375 0.484375 -0.40625q0.34375 -0.234375 0.78125 -0.34375q0.4375 -0.125 0.953125 -0.125q0.625 0 1.109375 0.125q0.5 0.125 0.859375 0.4375q0.34375 0.3125 0.53125 0.859375q0.203125 0.53125 0.203125 1.375l0 8.609375l3.609375 0l0 -8.671875q0 -1.53125 -0.359375 -2.609375q-0.359375 -1.078125 -0.984375 -1.765625q-0.65625 -0.671875 -1.546875 -0.984375q-0.875 -0.3125 -1.953125 -0.3125q-0.828125 0 -1.578125 0.234375q-0.734375 0.234375 -1.359375 0.671875q-0.359375 0.265625 -0.6875 0.59375q-0.328125 0.328125 -0.59375 0.71875l-0.234375 -1.953125l-3.28125 0l0 14.078125zm16.965149 -14.078125l0 2.953125l4.015625 0l0 8.1875l-4.015625 0l0 2.9375l11.484375 0l0 -2.9375l-3.8125 0l0 -11.140625l-7.671875 0zm3.75 -3.609375q0 0.421875 0.140625 0.78125q0.15625 0.34375 0.4375 0.59375q0.265625 0.265625 0.640625 0.40625q0.390625 0.140625 0.859375 0.140625q0.96875 0 1.53125 -0.53125q0.5625 -0.546875 0.5625 -1.390625q0 -0.84375 -0.5625 -1.375q-0.5625 -0.546875 -1.53125 -0.546875q-0.46875 0 -0.859375 0.140625q-0.375 0.140625 -0.640625 0.390625q-0.28125 0.25 -0.4375 0.609375q-0.140625 0.359375 -0.140625 0.78125zm17.918213 0.15625l-3.609375 0l0 3.453125l-3.21875 0l0 2.65625l3.21875 0l0 6.40625q0 1.390625 0.359375 2.390625q0.359375 1.0 1.046875 1.640625q0.65625 0.640625 1.59375 0.953125q0.953125 0.296875 2.109375 0.296875q0.59375 0 1.21875 -0.0625q0.625 -0.046875 1.1875 -0.15625q0.578125 -0.09375 1.078125 -0.25q0.515625 -0.171875 0.890625 -0.390625l-0.359375 -2.484375q-0.234375 0.0625 -0.578125 0.125q-0.34375 0.0625 -0.734375 0.109375q-0.40625 0.078125 -0.84375 0.125q-0.4375 0.03125 -0.859375 0.03125q-0.5625 0 -1.03125 -0.125q-0.46875 -0.140625 -0.78125 -0.453125q-0.328125 -0.296875 -0.515625 -0.8125q-0.171875 -0.515625 -0.171875 -1.28125l0 -6.0625l5.265625 0l0 -2.65625l-5.265625 0l0 -3.453125z" fill-rule="nonzero"/><path fill="#000000" fill-opacity="0.0" d="m388.45663 385.6614l-25.0 0l0 -246.64566l25.062988 0" fill-rule="evenodd"/><path stroke="#000000" stroke-width="3.0" stroke-linejoin="round" stroke-linecap="butt" d="m388.45667 385.6614l-25.0 0l0 -246.64566l11.562988 0" fill-rule="evenodd"/><path fill="#000000" stroke="#000000" stroke-width="3.0" stroke-linecap="butt" d="m375.01965 142.33308l9.114288 -3.317337l-9.114288 -3.317337z" fill-rule="evenodd"/><path fill="#000000" fill-opacity="0.0" d="m270.72946 262.33344l91.33859 2.015747" fill-rule="evenodd"/><path stroke="#000000" stroke-width="3.0" stroke-linejoin="round" stroke-linecap="butt" d="m270.72946 262.33344l73.34302 1.6185913" fill-rule="evenodd"/><path fill="#000000" stroke="#000000" stroke-width="3.0" stroke-linecap="butt" d="m343.96313 268.90604l13.720306 -4.6536255l-13.501648 -5.254364z" fill-rule="evenodd"/><path fill="#000000" fill-opacity="0.0" d="m314.12628 447.98413l0 -403.3071l95.40155 0" fill-rule="evenodd"/><path stroke="#000000" stroke-width="3.0" stroke-linejoin="round" stroke-linecap="butt" d="m314.12628 447.98413l0 -403.3071l95.40155 0" fill-rule="evenodd"/><path fill="#000000" fill-opacity="0.0" d="m314.12598 447.41995l355.4646 -4.0944824" fill-rule="evenodd"/><path stroke="#000000" stroke-width="3.0" stroke-linejoin="round" stroke-linecap="butt" d="m314.12598 447.41995l355.4646 -4.0944824" fill-rule="evenodd"/><path fill="#000000" fill-opacity="0.0" d="m670.0633 445.9054l0 -401.22836l-95.87402 0" fill-rule="evenodd"/><path stroke="#000000" stroke-width="3.0" stroke-linejoin="round" stroke-linecap="butt" d="m670.0633 445.9054l0 -401.22836l-95.87402 0" fill-rule="evenodd"/><path fill="#000000" fill-opacity="0.0" d="m613.2444 139.01003l25.0 0l0 246.64568l-24.937012 0" fill-rule="evenodd"/><path stroke="#000000" stroke-width="3.0" stroke-linejoin="round" stroke-linecap="butt" d="m613.2444 139.01003l25.0 0l0 246.64565l-11.437012 0" fill-rule="evenodd"/><path fill="#000000" stroke="#000000" stroke-width="3.0" stroke-linecap="butt" d="m626.8074 382.33835l-9.114319 3.3173218l9.114319 3.3173523z" fill-rule="evenodd"/><path fill="#000000" fill-opacity="0.0" d="m639.75806 257.1262l74.77167 -0.8188782" fill-rule="evenodd"/><path stroke="#000000" stroke-width="3.0" stroke-linejoin="round" stroke-linecap="butt" d="m639.75806 257.12622l56.772705 -0.62179565" fill-rule="evenodd"/><path fill="#000000" stroke="#000000" stroke-width="3.0" stroke-linecap="butt" d="m696.585 261.45935l13.559204 -5.104004l-13.667725 -4.8058167z" fill-rule="evenodd"/><path fill="#6d9eeb" d="m229.41666 469.6273l542.8661 0l0 48.1575l-542.8661 0z" fill-rule="evenodd"/><path stroke="#000000" stroke-width="3.0" stroke-linejoin="round" stroke-linecap="butt" d="m229.41666 469.6273l542.8661 0l0 48.1575l-542.8661 0z" fill-rule="evenodd"/><path fill="#000000" d="m302.56726 503.30603l6.921875 0q1.5625 0 2.8125 -0.34375q1.25 -0.359375 2.109375 -1.0625q0.875 -0.703125 1.34375 -1.734375q0.46875 -1.046875 0.46875 -2.421875q0 -0.71875 -0.1875 -1.375q-0.1875 -0.671875 -0.578125 -1.25q-0.375 -0.53125 -0.9375 -0.9375q-0.546875 -0.40625 -1.484375 -0.65625l0 -0.015625q0.484375 -0.1875 0.875 -0.4375q0.40625 -0.265625 0.71875 -0.578125q0.5625 -0.578125 0.859375 -1.328125q0.296875 -0.765625 0.3125 -1.625q0 -1.328125 -0.5 -2.296875q-0.484375 -0.984375 -1.375 -1.625q-0.90625 -0.640625 -2.171875 -0.953125q-1.265625 -0.3125 -2.8125 -0.3125l-6.375 0l0 18.953125zm3.671875 -8.359375l3.421875 0q0.765625 0.015625 1.3125 0.21875q0.5625 0.1875 0.921875 0.546875q0.34375 0.359375 0.5 0.875q0.171875 0.5 0.171875 1.140625q0 0.609375 -0.21875 1.109375q-0.203125 0.484375 -0.625 0.84375q-0.375 0.3125 -0.953125 0.5q-0.5625 0.171875 -1.265625 0.171875l-3.265625 0l0 -5.40625zm0 -2.640625l0 -4.96875l2.71875 0q0.875 0.015625 1.53125 0.203125q0.65625 0.171875 1.046875 0.578125q0.3125 0.28125 0.453125 0.71875q0.15625 0.421875 0.15625 1.0q0 0.546875 -0.1875 0.984375q-0.171875 0.421875 -0.5 0.71875q-0.390625 0.375 -1.03125 0.5625q-0.625 0.1875 -1.46875 0.203125l-2.71875 0zm13.246368 -9.0l0 2.96875l4.21875 0l0 14.09375l-4.21875 0l0 2.9375l11.90625 0l0 -2.9375l-4.03125 0l0 -17.0625l-7.875 0zm14.746338 12.828125l0 0.28125q0 1.546875 0.4375 2.859375q0.4375 1.296875 1.296875 2.265625q0.859375 0.953125 2.09375 1.5q1.25 0.53125 2.828125 0.53125q1.578125 0 2.8125 -0.53125q1.234375 -0.546875 2.09375 -1.5q0.84375 -0.96875 1.28125 -2.265625q0.4375 -1.3125 0.4375 -2.859375l0 -0.28125q0 -1.53125 -0.4375 -2.84375q-0.4375 -1.3125 -1.28125 -2.265625q-0.859375 -0.96875 -2.109375 -1.515625q-1.234375 -0.546875 -2.8125 -0.546875q-1.59375 0 -2.828125 0.546875q-1.21875 0.546875 -2.078125 1.515625q-0.859375 0.953125 -1.296875 2.265625q-0.4375 1.3125 -0.4375 2.84375zm3.609375 0.28125l0 -0.28125q0 -0.859375 0.171875 -1.625q0.171875 -0.765625 0.53125 -1.359375q0.375 -0.578125 0.9375 -0.921875q0.578125 -0.34375 1.390625 -0.34375q0.8125 0 1.375 0.34375q0.578125 0.34375 0.953125 0.921875q0.34375 0.59375 0.515625 1.359375q0.171875 0.765625 0.171875 1.625l0 0.28125q0 0.875 -0.171875 1.65625q-0.171875 0.765625 -0.515625 1.34375q-0.375 0.578125 -0.953125 0.921875q-0.5625 0.34375 -1.359375 0.34375q-0.8125 0 -1.390625 -0.34375q-0.578125 -0.34375 -0.953125 -0.921875q-0.359375 -0.578125 -0.53125 -1.34375q-0.171875 -0.78125 -0.171875 -1.65625zm19.105743 4.265625q-0.859375 0 -1.4375 -0.34375q-0.5625 -0.359375 -0.890625 -0.953125q-0.328125 -0.5625 -0.46875 -1.328125q-0.125 -0.765625 -0.125 -1.578125l0 -0.390625q0 -0.8125 0.140625 -1.5625q0.140625 -0.765625 0.46875 -1.34375q0.328125 -0.59375 0.890625 -0.9375q0.5625 -0.359375 1.421875 -0.359375q0.578125 0 1.0625 0.203125q0.5 0.203125 0.859375 0.546875q0.34375 0.34375 0.53125 0.8125q0.1875 0.46875 0.15625 0.984375l3.40625 0q0.03125 -1.25 -0.421875 -2.25q-0.4375 -1.015625 -1.21875 -1.734375q-0.8125 -0.703125 -1.921875 -1.09375q-1.109375 -0.390625 -2.40625 -0.390625q-1.625 0 -2.859375 0.5625q-1.234375 0.5625 -2.0625 1.515625q-0.828125 0.96875 -1.25 2.265625q-0.421875 1.296875 -0.421875 2.78125l0 0.390625q0 1.484375 0.421875 2.78125q0.4375 1.28125 1.265625 2.25q0.8125 0.96875 2.046875 1.515625q1.25 0.546875 2.890625 0.546875q1.203125 0 2.28125 -0.375q1.09375 -0.390625 1.921875 -1.0625q0.8125 -0.671875 1.28125 -1.609375q0.484375 -0.9375 0.453125 -2.03125l-3.40625 0q0.03125 0.484375 -0.171875 0.890625q-0.203125 0.40625 -0.5625 0.6875q-0.375 0.296875 -0.859375 0.453125q-0.46875 0.15625 -1.015625 0.15625zm15.058838 -3.1875l4.0 5.8125l4.4375 0l-6.046875 -8.21875l5.3125 -5.859375l-4.34375 0l-3.890625 4.265625l-1.09375 1.25l0 -11.4375l-3.625 0l0 20.0l3.625 0l0 -4.296875l1.625 -1.515625zm26.492706 5.8125l5.09375 0q1.265625 0 2.375 -0.3125q1.109375 -0.3125 2.03125 -0.890625q0.796875 -0.5 1.453125 -1.234375q0.671875 -0.734375 1.171875 -1.609375q0.515625 -0.984375 0.796875 -2.140625q0.296875 -1.171875 0.296875 -2.5l0 -1.5625q0 -1.359375 -0.3125 -2.5625q-0.3125 -1.21875 -0.859375 -2.21875q-0.484375 -0.828125 -1.140625 -1.515625q-0.640625 -0.703125 -1.453125 -1.1875q-0.9375 -0.578125 -2.09375 -0.890625q-1.140625 -0.328125 -2.453125 -0.328125l-4.90625 0l0 18.953125zm3.6875 -15.984375l1.21875 0q0.671875 0 1.234375 0.15625q0.5625 0.140625 1.03125 0.421875q0.609375 0.359375 1.0625 0.9375q0.46875 0.5625 0.765625 1.296875q0.234375 0.609375 0.359375 1.34375q0.125 0.734375 0.125 1.5625l0 1.578125q0 0.875 -0.125 1.625q-0.125 0.75 -0.359375 1.359375q-0.296875 0.703125 -0.6875 1.234375q-0.390625 0.53125 -0.890625 0.859375q-0.484375 0.328125 -1.078125 0.5q-0.578125 0.171875 -1.25 0.171875l-1.40625 0l0 -13.046875zm13.480743 1.90625l0 2.953125l4.015625 0l0 8.1875l-4.015625 0l0 2.9375l11.484375 0l0 -2.9375l-3.8125 0l0 -11.140625l-7.671875 0zm3.75 -3.609375q0 0.421875 0.140625 0.78125q0.15625 0.34375 0.4375 0.59375q0.265625 0.265625 0.640625 0.40625q0.390625 0.140625 0.859375 0.140625q0.96875 0 1.53125 -0.53125q0.5625 -0.546875 0.5625 -1.390625q0 -0.84375 -0.5625 -1.375q-0.5625 -0.546875 -1.53125 -0.546875q-0.46875 0 -0.859375 0.140625q-0.375 0.140625 -0.640625 0.390625q-0.28125 0.25 -0.4375 0.609375q-0.140625 0.359375 -0.140625 0.78125zm20.090088 17.6875l3.65625 0l0 -0.21875q-0.265625 -0.53125 -0.40625 -1.265625q-0.140625 -0.75 -0.140625 -1.890625l0 -6.03125q0 -1.234375 -0.46875 -2.15625q-0.453125 -0.9375 -1.25 -1.546875q-0.8125 -0.609375 -1.921875 -0.921875q-1.09375 -0.3125 -2.359375 -0.3125q-1.421875 0 -2.53125 0.359375q-1.09375 0.359375 -1.84375 0.96875q-0.765625 0.609375 -1.171875 1.421875q-0.390625 0.796875 -0.390625 1.703125l3.609375 0q0 -0.375 0.109375 -0.6875q0.125 -0.3125 0.359375 -0.53125q0.25 -0.25 0.65625 -0.390625q0.421875 -0.140625 1.0 -0.140625q0.65625 0 1.140625 0.171875q0.484375 0.15625 0.8125 0.453125q0.3125 0.296875 0.46875 0.6875q0.15625 0.390625 0.15625 0.890625l0 0.828125l-2.015625 0q-1.5625 0 -2.765625 0.28125q-1.203125 0.28125 -2.03125 0.8125q-0.90625 0.59375 -1.359375 1.5q-0.453125 0.90625 -0.453125 2.078125q0 0.90625 0.359375 1.6875q0.359375 0.765625 1.015625 1.328125q0.65625 0.5625 1.5625 0.875q0.90625 0.3125 1.984375 0.3125q0.65625 0 1.21875 -0.125q0.578125 -0.125 1.0625 -0.34375q0.46875 -0.21875 0.859375 -0.5q0.390625 -0.28125 0.6875 -0.609375q0.078125 0.375 0.15625 0.71875q0.09375 0.328125 0.234375 0.59375zm-3.453125 -2.53125q-0.515625 0 -0.90625 -0.125q-0.375 -0.125 -0.625 -0.34375q-0.265625 -0.21875 -0.40625 -0.53125q-0.140625 -0.328125 -0.140625 -0.703125q0 -0.484375 0.1875 -0.890625q0.1875 -0.40625 0.5625 -0.703125q0.375 -0.296875 0.96875 -0.453125q0.609375 -0.15625 1.453125 -0.15625l1.84375 0l0 2.421875q-0.15625 0.265625 -0.4375 0.53125q-0.265625 0.265625 -0.640625 0.484375q-0.375 0.203125 -0.84375 0.34375q-0.46875 0.125 -1.015625 0.125zm10.277618 -4.609375l0 0.265625q0 1.53125 0.390625 2.84375q0.40625 1.3125 1.140625 2.265625q0.75 0.953125 1.796875 1.5q1.046875 0.53125 2.359375 0.53125q0.671875 0 1.25 -0.15625q0.578125 -0.140625 1.0625 -0.390625q0.3125 -0.1875 0.59375 -0.421875q0.296875 -0.234375 0.5625 -0.515625l0 0.796875q0 0.71875 -0.203125 1.28125q-0.203125 0.578125 -0.578125 0.96875q-0.421875 0.4375 -1.046875 0.65625q-0.609375 0.21875 -1.40625 0.21875q-0.5 0 -0.96875 -0.09375q-0.453125 -0.09375 -0.875 -0.296875q-0.4375 -0.1875 -0.84375 -0.5q-0.40625 -0.296875 -0.765625 -0.703125l-1.625 2.203125q0.453125 0.578125 1.09375 1.0q0.640625 0.421875 1.359375 0.703125q0.71875 0.265625 1.4375 0.390625q0.734375 0.140625 1.375 0.140625q1.484375 0 2.703125 -0.40625q1.234375 -0.390625 2.125 -1.15625q0.875 -0.765625 1.359375 -1.890625q0.484375 -1.125 0.484375 -2.546875l0 -13.625l-3.296875 0l-0.140625 1.328125q-0.25 -0.3125 -0.5625 -0.578125q-0.3125 -0.265625 -0.6875 -0.46875q-0.484375 -0.265625 -1.078125 -0.40625q-0.578125 -0.140625 -1.296875 -0.140625q-1.328125 0 -2.390625 0.53125q-1.046875 0.515625 -1.796875 1.453125q-0.734375 0.953125 -1.140625 2.28125q-0.390625 1.328125 -0.390625 2.9375zm3.640625 0.265625l0 -0.265625q0 -0.890625 0.171875 -1.65625q0.1875 -0.78125 0.5625 -1.375q0.359375 -0.5625 0.921875 -0.890625q0.5625 -0.34375 1.328125 -0.34375q0.421875 0 0.78125 0.078125q0.359375 0.078125 0.65625 0.21875q0.34375 0.171875 0.609375 0.453125q0.28125 0.265625 0.484375 0.640625l0 5.953125q-0.1875 0.328125 -0.4375 0.59375q-0.25 0.25 -0.5625 0.4375q-0.3125 0.171875 -0.703125 0.265625q-0.390625 0.078125 -0.859375 0.078125q-0.765625 0 -1.328125 -0.3125q-0.546875 -0.328125 -0.921875 -0.90625q-0.359375 -0.5625 -0.53125 -1.3125q-0.171875 -0.765625 -0.171875 -1.65625zm22.840088 -7.46875q-1.421875 0 -2.625 0.6875q-1.1875 0.671875 -2.046875 1.875l-0.03125 -0.3125l-0.140625 -1.984375l-3.375 0l0 14.078125l3.625 0l0 -8.453125q0.234375 -0.609375 0.609375 -1.046875q0.390625 -0.4375 0.921875 -0.734375q0.4375 -0.25 1.0 -0.359375q0.578125 -0.125 1.28125 -0.125q0.671875 0 1.421875 0.078125q0.75 0.078125 1.46875 0.25l0.53125 -3.59375q-0.4375 -0.140625 -1.140625 -0.25q-0.6875 -0.109375 -1.5 -0.109375zm14.683838 14.34375l3.65625 0l0 -0.21875q-0.265625 -0.53125 -0.40625 -1.265625q-0.140625 -0.75 -0.140625 -1.890625l0 -6.03125q0 -1.234375 -0.46875 -2.15625q-0.453125 -0.9375 -1.25 -1.546875q-0.8125 -0.609375 -1.921875 -0.921875q-1.09375 -0.3125 -2.3593445 -0.3125q-1.421875 0 -2.53125 0.359375q-1.09375 0.359375 -1.84375 0.96875q-0.765625 0.609375 -1.171875 1.421875q-0.390625 0.796875 -0.390625 1.703125l3.609375 0q0 -0.375 0.109375 -0.6875q0.125 -0.3125 0.359375 -0.53125q0.25 -0.25 0.65625 -0.390625q0.421875 -0.140625 1.0 -0.140625q0.65625 0 1.1405945 0.171875q0.484375 0.15625 0.8125 0.453125q0.3125 0.296875 0.46875 0.6875q0.15625 0.390625 0.15625 0.890625l0 0.828125l-2.0155945 0q-1.5625 0 -2.765625 0.28125q-1.203125 0.28125 -2.03125 0.8125q-0.90625 0.59375 -1.359375 1.5q-0.453125 0.90625 -0.453125 2.078125q0 0.90625 0.359375 1.6875q0.359375 0.765625 1.015625 1.328125q0.65625 0.5625 1.5625 0.875q0.90625 0.3125 1.984375 0.3125q0.65625 0 1.21875 -0.125q0.578125 -0.125 1.0624695 -0.34375q0.46875 -0.21875 0.859375 -0.5q0.390625 -0.28125 0.6875 -0.609375q0.078125 0.375 0.15625 0.71875q0.09375 0.328125 0.234375 0.59375zm-3.4530945 -2.53125q-0.515625 0 -0.90625 -0.125q-0.375 -0.125 -0.625 -0.34375q-0.265625 -0.21875 -0.40625 -0.53125q-0.140625 -0.328125 -0.140625 -0.703125q0 -0.484375 0.1875 -0.890625q0.1875 -0.40625 0.5625 -0.703125q0.375 -0.296875 0.96875 -0.453125q0.609375 -0.15625 1.453125 -0.15625l1.8437195 0l0 2.421875q-0.15625 0.265625 -0.4375 0.53125q-0.265625 0.265625 -0.640625 0.484375q-0.375 0.203125 -0.8437195 0.34375q-0.46875 0.125 -1.015625 0.125zm12.902588 -11.546875l-3.125 0l0 14.078125l3.296875 0l0 -10.546875q0.0625 -0.171875 0.140625 -0.3125q0.078125 -0.140625 0.1875 -0.25q0.140625 -0.140625 0.328125 -0.21875q0.1875 -0.078125 0.421875 -0.078125q0.203125 0 0.375 0.0625q0.1875 0.0625 0.328125 0.203125q0.140625 0.140625 0.21875 0.40625q0.078125 0.25 0.078125 0.65625l0 10.078125l3.1875 0l0 -10.390625q0 -0.15625 0 -0.234375q0 -0.09375 0 -0.125q0.0625 -0.140625 0.15625 -0.25q0.09375 -0.109375 0.203125 -0.203125q0.140625 -0.09375 0.296875 -0.140625q0.171875 -0.0625 0.375 -0.0625q0.203125 0 0.390625 0.0625q0.1875 0.0625 0.328125 0.203125q0.140625 0.15625 0.21875 0.421875q0.09375 0.25 0.09375 0.65625l0 10.0625l3.296875 0l0 -10.046875q0 -1.171875 -0.234375 -1.984375q-0.21875 -0.8125 -0.625 -1.328125q-0.421875 -0.515625 -0.96875 -0.75q-0.546875 -0.234375 -1.1875 -0.234375q-0.515625 0 -0.953125 0.140625q-0.421875 0.125 -0.75 0.359375q-0.28125 0.171875 -0.515625 0.4375q-0.21875 0.25 -0.40625 0.5625q-0.109375 -0.328125 -0.28125 -0.578125q-0.15625 -0.25 -0.375 -0.4375q-0.296875 -0.25 -0.6875 -0.359375q-0.390625 -0.125 -0.875 -0.125q-1.015625 0 -1.734375 0.53125q-0.703125 0.515625 -1.109375 1.4375l-0.09375 -1.703125zm29.242737 6.90625l0 0.28125q0 1.546875 0.4375 2.859375q0.4375 1.296875 1.296875 2.265625q0.859375 0.953125 2.09375 1.5q1.25 0.53125 2.828125 0.53125q1.578125 0 2.8125 -0.53125q1.234375 -0.546875 2.09375 -1.5q0.84375 -0.96875 1.28125 -2.265625q0.4375 -1.3125 0.4375 -2.859375l0 -0.28125q0 -1.53125 -0.4375 -2.84375q-0.4375 -1.3125 -1.28125 -2.265625q-0.859375 -0.96875 -2.109375 -1.515625q-1.234375 -0.546875 -2.8125 -0.546875q-1.59375 0 -2.828125 0.546875q-1.21875 0.546875 -2.078125 1.515625q-0.859375 0.953125 -1.296875 2.265625q-0.4375 1.3125 -0.4375 2.84375zm3.609375 0.28125l0 -0.28125q0 -0.859375 0.171875 -1.625q0.171875 -0.765625 0.53125 -1.359375q0.375 -0.578125 0.9375 -0.921875q0.578125 -0.34375 1.390625 -0.34375q0.8125 0 1.375 0.34375q0.578125 0.34375 0.953125 0.921875q0.34375 0.59375 0.515625 1.359375q0.171875 0.765625 0.171875 1.625l0 0.28125q0 0.875 -0.171875 1.65625q-0.171875 0.765625 -0.515625 1.34375q-0.375 0.578125 -0.953125 0.921875q-0.5625 0.34375 -1.359375 0.34375q-0.8125 0 -1.390625 -0.34375q-0.578125 -0.34375 -0.953125 -0.921875q-0.359375 -0.578125 -0.53125 -1.34375q-0.171875 -0.78125 -0.171875 -1.65625zm16.386963 6.890625l3.625 0l0 -11.421875l5.078125 0l0 -2.65625l-5.078125 0l0 -0.765625q0 -0.625 0.15625 -1.125q0.171875 -0.5 0.5 -0.828125q0.390625 -0.40625 1.015625 -0.609375q0.640625 -0.21875 1.5625 -0.21875q0.84375 0 1.46875 0.078125q0.625 0.078125 1.109375 0.1875l0.234375 -2.84375q-0.4375 -0.078125 -0.859375 -0.140625q-0.40625 -0.0625 -0.796875 -0.109375q-0.40625 -0.0625 -0.828125 -0.09375q-0.421875 -0.03125 -0.875 -0.03125q-1.453125 0 -2.625 0.375q-1.171875 0.359375 -1.984375 1.09375q-0.828125 0.734375 -1.265625 1.796875q-0.4375 1.0625 -0.4375 2.46875l0 0.765625l-3.703125 0l0 2.65625l3.703125 0l0 11.421875zm41.5083 -5.9375l-3.65625 0q-0.046875 0.859375 -0.28125 1.46875q-0.234375 0.609375 -0.640625 1.0q-0.40625 0.390625 -0.984375 0.578125q-0.5625 0.1875 -1.28125 0.1875q-0.53125 0 -0.96875 -0.125q-0.4375 -0.125 -0.78125 -0.390625q-0.328125 -0.234375 -0.59375 -0.578125q-0.25 -0.359375 -0.421875 -0.8125q-0.265625 -0.65625 -0.390625 -1.546875q-0.125 -0.890625 -0.125 -2.03125l0 -2.578125q0 -0.828125 0.078125 -1.546875q0.078125 -0.734375 0.25 -1.328125q0.21875 -0.765625 0.59375 -1.34375q0.375 -0.578125 0.90625 -0.890625q0.3125 -0.1875 0.671875 -0.28125q0.375 -0.09375 0.8125 -0.09375q0.796875 0 1.375 0.21875q0.59375 0.21875 0.984375 0.640625q0.375 0.421875 0.578125 1.0625q0.203125 0.640625 0.25 1.484375l3.640625 0q-0.125 -1.484375 -0.625 -2.671875q-0.5 -1.1875 -1.34375 -2.0q-0.859375 -0.828125 -2.078125 -1.265625q-1.21875 -0.4375 -2.78125 -0.4375q-1.0625 0 -1.984375 0.265625q-0.90625 0.265625 -1.671875 0.75q-0.859375 0.59375 -1.546875 1.4375q-0.671875 0.84375 -1.09375 1.921875q-0.359375 0.890625 -0.546875 1.921875q-0.171875 1.03125 -0.171875 2.1875l0 2.546875q0 1.21875 0.203125 2.3125q0.203125 1.09375 0.578125 2.015625q0.390625 0.90625 0.953125 1.671875q0.5625 0.75 1.296875 1.28125q0.796875 0.5625 1.78125 0.875q1.0 0.296875 2.171875 0.296875q1.484375 0 2.703125 -0.421875q1.234375 -0.4375 2.109375 -1.25q0.890625 -0.8125 1.40625 -1.953125q0.53125 -1.140625 0.625 -2.578125zm2.480713 -1.234375l0 0.28125q0 1.546875 0.4375 2.859375q0.4375 1.296875 1.296875 2.265625q0.859375 0.953125 2.09375 1.5q1.25 0.53125 2.828125 0.53125q1.578125 0 2.8125 -0.53125q1.234375 -0.546875 2.09375 -1.5q0.84375 -0.96875 1.28125 -2.265625q0.4375 -1.3125 0.4375 -2.859375l0 -0.28125q0 -1.53125 -0.4375 -2.84375q-0.4375 -1.3125 -1.28125 -2.265625q-0.859375 -0.96875 -2.109375 -1.515625q-1.234375 -0.546875 -2.8125 -0.546875q-1.59375 0 -2.828125 0.546875q-1.21875 0.546875 -2.078125 1.515625q-0.859375 0.953125 -1.296875 2.265625q-0.4375 1.3125 -0.4375 2.84375zm3.609375 0.28125l0 -0.28125q0 -0.859375 0.171875 -1.625q0.171875 -0.765625 0.53125 -1.359375q0.375 -0.578125 0.9375 -0.921875q0.578125 -0.34375 1.390625 -0.34375q0.8125 0 1.375 0.34375q0.578125 0.34375 0.953125 0.921875q0.34375 0.59375 0.515625 1.359375q0.171875 0.765625 0.171875 1.625l0 0.28125q0 0.875 -0.171875 1.65625q-0.171875 0.765625 -0.515625 1.34375q-0.375 0.578125 -0.953125 0.921875q-0.5625 0.34375 -1.359375 0.34375q-0.8125 0 -1.390625 -0.34375q-0.578125 -0.34375 -0.953125 -0.921875q-0.359375 -0.578125 -0.53125 -1.34375q-0.171875 -0.78125 -0.171875 -1.65625zm15.136963 -7.1875l-3.125 0l0 14.078125l3.296875 0l0 -10.546875q0.0625 -0.171875 0.140625 -0.3125q0.078125 -0.140625 0.1875 -0.25q0.140625 -0.140625 0.328125 -0.21875q0.1875 -0.078125 0.421875 -0.078125q0.203125 0 0.375 0.0625q0.1875 0.0625 0.328125 0.203125q0.140625 0.140625 0.21875 0.40625q0.078125 0.25 0.078125 0.65625l0 10.078125l3.1875 0l0 -10.390625q0 -0.15625 0 -0.234375q0 -0.09375 0 -0.125q0.0625 -0.140625 0.15625 -0.25q0.09375 -0.109375 0.203125 -0.203125q0.140625 -0.09375 0.296875 -0.140625q0.171875 -0.0625 0.375 -0.0625q0.203125 0 0.390625 0.0625q0.1875 0.0625 0.328125 0.203125q0.140625 0.15625 0.21875 0.421875q0.09375 0.25 0.09375 0.65625l0 10.0625l3.296875 0l0 -10.046875q0 -1.171875 -0.234375 -1.984375q-0.21875 -0.8125 -0.625 -1.328125q-0.421875 -0.515625 -0.96875 -0.75q-0.546875 -0.234375 -1.1875 -0.234375q-0.515625 0 -0.953125 0.140625q-0.421875 0.125 -0.75 0.359375q-0.28125 0.171875 -0.515625 0.4375q-0.21875 0.25 -0.40625 0.5625q-0.109375 -0.328125 -0.28125 -0.578125q-0.15625 -0.25 -0.375 -0.4375q-0.296875 -0.25 -0.6875 -0.359375q-0.390625 -0.125 -0.875 -0.125q-1.015625 0 -1.734375 0.53125q-0.703125 0.515625 -1.109375 1.4375l-0.09375 -1.703125zm13.793213 19.5l3.609375 0l0 -6.640625q0.25 0.265625 0.515625 0.5q0.28125 0.21875 0.578125 0.390625q0.515625 0.296875 1.109375 0.4375q0.59375 0.15625 1.296875 0.15625q1.328125 0 2.34375 -0.546875q1.03125 -0.546875 1.734375 -1.515625q0.6875 -0.953125 1.046875 -2.265625q0.359375 -1.3125 0.359375 -2.84375l0 -0.28125q0 -1.59375 -0.359375 -2.90625q-0.359375 -1.328125 -1.0625 -2.28125q-0.703125 -0.9375 -1.734375 -1.453125q-1.015625 -0.515625 -2.359375 -0.515625q-0.65625 0 -1.21875 0.140625q-0.5625 0.140625 -1.03125 0.375q-0.390625 0.21875 -0.734375 0.5q-0.328125 0.265625 -0.625 0.625l-0.125 -1.375l-3.34375 0l0 19.5zm8.984375 -12.609375l0 0.28125q0 0.859375 -0.15625 1.640625q-0.15625 0.78125 -0.5 1.359375q-0.34375 0.59375 -0.890625 0.9375q-0.53125 0.328125 -1.296875 0.328125q-0.484375 0 -0.875 -0.09375q-0.390625 -0.109375 -0.6875 -0.28125q-0.3125 -0.203125 -0.5625 -0.46875q-0.234375 -0.28125 -0.40625 -0.609375l0 -5.890625q0.1875 -0.359375 0.4375 -0.625q0.265625 -0.28125 0.59375 -0.46875q0.296875 -0.15625 0.65625 -0.234375q0.375 -0.09375 0.8125 -0.09375q0.765625 0 1.3125 0.328125q0.546875 0.328125 0.890625 0.890625q0.34375 0.5625 0.5 1.34375q0.171875 0.78125 0.171875 1.65625zm16.152588 7.1875l3.265625 0l0 -14.078125l-3.625 0l0 9.875q-0.171875 0.34375 -0.40625 0.625q-0.234375 0.265625 -0.53125 0.453125q-0.34375 0.21875 -0.8125 0.34375q-0.46875 0.109375 -1.03125 0.109375q-0.640625 0 -1.09375 -0.15625q-0.4375 -0.15625 -0.703125 -0.515625q-0.28125 -0.359375 -0.40625 -0.9375q-0.109375 -0.59375 -0.109375 -1.453125l0 -8.34375l-3.625 0l0 8.328125q0 1.59375 0.359375 2.734375q0.359375 1.140625 1.0 1.875q0.65625 0.734375 1.5625 1.078125q0.921875 0.328125 2.015625 0.328125q1.1875 0 2.1875 -0.59375q1.015625 -0.59375 1.734375 -1.65625l0.21875 1.984375zm13.433838 -17.53125l-3.609375 0l0 3.453125l-3.21875 0l0 2.65625l3.21875 0l0 6.40625q0 1.390625 0.359375 2.390625q0.359375 1.0 1.046875 1.640625q0.65625 0.640625 1.59375 0.953125q0.953125 0.296875 2.109375 0.296875q0.59375 0 1.21875 -0.0625q0.625 -0.046875 1.1875 -0.15625q0.578125 -0.09375 1.078125 -0.25q0.515625 -0.171875 0.890625 -0.390625l-0.359375 -2.484375q-0.234375 0.0625 -0.578125 0.125q-0.34375 0.0625 -0.734375 0.109375q-0.40625 0.078125 -0.84375 0.125q-0.4375 0.03125 -0.859375 0.03125q-0.5625 0 -1.03125 -0.125q-0.46875 -0.140625 -0.78125 -0.453125q-0.328125 -0.296875 -0.515625 -0.8125q-0.171875 -0.515625 -0.171875 -1.28125l0 -6.0625l5.265625 0l0 -2.65625l-5.265625 0l0 -3.453125zm16.199463 17.796875q2.046875 0 3.53125 -0.796875q1.5 -0.796875 2.1875 -1.765625l-1.796875 -1.953125q-0.625 0.796875 -1.640625 1.203125q-1.0 0.40625 -2.0625 0.40625q-0.75 0 -1.390625 -0.234375q-0.640625 -0.234375 -1.140625 -0.671875q-0.46875 -0.40625 -0.765625 -0.921875q-0.28125 -0.515625 -0.46875 -1.359375l0 -0.046875l9.5625 0l0 -1.53125q0 -1.546875 -0.4375 -2.828125q-0.421875 -1.28125 -1.25 -2.203125q-0.828125 -0.90625 -2.03125 -1.40625q-1.1875 -0.5 -2.703125 -0.5q-1.46875 0 -2.71875 0.53125q-1.25 0.53125 -2.15625 1.5q-0.921875 0.96875 -1.4375 2.296875q-0.5 1.328125 -0.5 2.953125l0 0.515625q0 1.421875 0.515625 2.671875q0.515625 1.234375 1.46875 2.140625q0.953125 0.921875 2.28125 1.46875q1.328125 0.53125 2.953125 0.53125zm-0.4375 -11.6875q0.6875 0 1.21875 0.21875q0.53125 0.21875 0.890625 0.578125q0.375 0.375 0.578125 0.890625q0.203125 0.5 0.203125 1.078125l0 0.28125l-5.9375 0q0.140625 -0.6875 0.390625 -1.234375q0.265625 -0.5625 0.65625 -0.96875q0.375 -0.40625 0.875 -0.625q0.515625 -0.21875 1.125 -0.21875zm19.715088 -2.921875q-1.421875 0 -2.625 0.6875q-1.1875 0.671875 -2.046875 1.875l-0.03125 -0.3125l-0.140625 -1.984375l-3.375 0l0 14.078125l3.625 0l0 -8.453125q0.234375 -0.609375 0.609375 -1.046875q0.390625 -0.4375 0.921875 -0.734375q0.4375 -0.25 1.0 -0.359375q0.578125 -0.125 1.28125 -0.125q0.671875 0 1.421875 0.078125q0.75 0.078125 1.46875 0.25l0.53125 -3.59375q-0.4375 -0.140625 -1.140625 -0.25q-0.6875 -0.109375 -1.5 -0.109375z" fill-rule="nonzero"/></g></svg>