<svg id="visual" viewBox="0 0 960 540" width="960" height="540" xmlns="http://www.w3.org/2000/svg" xmlns:xlink="http://www.w3.org/1999/xlink" version="1.1"><rect x="0" y="0" width="960" height="540" fill="#FCAF3C"></rect><path d="M0 132L22.8 132.8C45.7 133.7 91.3 135.3 137 135C182.7 134.7 228.3 132.3 274 131.8C319.7 131.3 365.3 132.7 411.2 134.3C457 136 503 138 548.8 138.7C594.7 139.3 640.3 138.7 686 138C731.7 137.3 777.3 136.7 823 134.7C868.7 132.7 914.3 129.3 937.2 127.7L960 126L960 0L937.2 0C914.3 0 868.7 0 823 0C777.3 0 731.7 0 686 0C640.3 0 594.7 0 548.8 0C503 0 457 0 411.2 0C365.3 0 319.7 0 274 0C228.3 0 182.7 0 137 0C91.3 0 45.7 0 22.8 0L0 0Z" fill="#c44c40"></path><path d="M0 68L22.8 68.2C45.7 68.3 91.3 68.7 137 68.3C182.7 68 228.3 67 274 65.3C319.7 63.7 365.3 61.3 411.2 61.7C457 62 503 65 548.8 67.2C594.7 69.3 640.3 70.7 686 71.8C731.7 73 777.3 74 823 73.3C868.7 72.7 914.3 70.3 937.2 69.2L960 68L960 0L937.2 0C914.3 0 868.7 0 823 0C777.3 0 731.7 0 686 0C640.3 0 594.7 0 548.8 0C503 0 457 0 411.2 0C365.3 0 319.7 0 274 0C228.3 0 182.7 0 137 0C91.3 0 45.7 0 22.8 0L0 0Z" fill="#c44c40"></path></svg>