<svg id="visual" viewBox="0 0 960 540" width="960" height="540" xmlns="http://www.w3.org/2000/svg" xmlns:xlink="http://www.w3.org/1999/xlink" version="1.1"><rect x="0" y="0" width="960" height="540" fill="#ffffff"></rect><path d="M0 62L26.7 66.8C53.3 71.7 106.7 81.3 160 85.8C213.3 90.3 266.7 89.7 320 85C373.3 80.3 426.7 71.7 480 67.7C533.3 63.7 586.7 64.3 640 68.8C693.3 73.3 746.7 81.7 800 86.7C853.3 91.7 906.7 93.3 933.3 94.2L960 95L960 0L933.3 0C906.7 0 853.3 0 800 0C746.7 0 693.3 0 640 0C586.7 0 533.3 0 480 0C426.7 0 373.3 0 320 0C266.7 0 213.3 0 160 0C106.7 0 53.3 0 26.7 0L0 0Z" fill="#c44c40" stroke-linecap="round" stroke-linejoin="miter"></path></svg>