<svg id="visual" viewBox="0 0 960 540" width="960" height="540" xmlns="http://www.w3.org/2000/svg" xmlns:xlink="http://www.w3.org/1999/xlink" version="1.1"><rect x="0" y="0" width="960" height="540" fill="#ffffff"></rect><path d="M0 320L22.8 322.5C45.7 325 91.3 330 137 336.7C182.7 343.3 228.3 351.7 274 350.7C319.7 349.7 365.3 339.3 411.2 338.3C457 337.3 503 345.7 548.8 352.7C594.7 359.7 640.3 365.3 686 362.8C731.7 360.3 777.3 349.7 823 352.7C868.7 355.7 914.3 372.3 937.2 380.7L960 389L960 541L937.2 541C914.3 541 868.7 541 823 541C777.3 541 731.7 541 686 541C640.3 541 594.7 541 548.8 541C503 541 457 541 411.2 541C365.3 541 319.7 541 274 541C228.3 541 182.7 541 137 541C91.3 541 45.7 541 22.8 541L0 541Z" fill="#ff6f61"></path><path d="M0 383L22.8 381.7C45.7 380.3 91.3 377.7 137 373.5C182.7 369.3 228.3 363.7 274 368C319.7 372.3 365.3 386.7 411.2 388.3C457 390 503 379 548.8 372.7C594.7 366.3 640.3 364.7 686 362.3C731.7 360 777.3 357 823 356.5C868.7 356 914.3 358 937.2 359L960 360L960 541L937.2 541C914.3 541 868.7 541 823 541C777.3 541 731.7 541 686 541C640.3 541 594.7 541 548.8 541C503 541 457 541 411.2 541C365.3 541 319.7 541 274 541C228.3 541 182.7 541 137 541C91.3 541 45.7 541 22.8 541L0 541Z" fill="#ff865a"></path><path d="M0 439L22.8 431.8C45.7 424.7 91.3 410.3 137 403.5C182.7 396.7 228.3 397.3 274 398.5C319.7 399.7 365.3 401.3 411.2 407.3C457 413.3 503 423.7 548.8 432.8C594.7 442 640.3 450 686 446.7C731.7 443.3 777.3 428.7 823 418.2C868.7 407.7 914.3 401.3 937.2 398.2L960 395L960 541L937.2 541C914.3 541 868.7 541 823 541C777.3 541 731.7 541 686 541C640.3 541 594.7 541 548.8 541C503 541 457 541 411.2 541C365.3 541 319.7 541 274 541C228.3 541 182.7 541 137 541C91.3 541 45.7 541 22.8 541L0 541Z" fill="#ff9d57"></path><path d="M0 433L22.8 436.3C45.7 439.7 91.3 446.3 137 453.8C182.7 461.3 228.3 469.7 274 466.8C319.7 464 365.3 450 411.2 444C457 438 503 440 548.8 439.7C594.7 439.3 640.3 436.7 686 438.8C731.7 441 777.3 448 823 456.8C868.7 465.7 914.3 476.3 937.2 481.7L960 487L960 541L937.2 541C914.3 541 868.7 541 823 541C777.3 541 731.7 541 686 541C640.3 541 594.7 541 548.8 541C503 541 457 541 411.2 541C365.3 541 319.7 541 274 541C228.3 541 182.7 541 137 541C91.3 541 45.7 541 22.8 541L0 541Z" fill="#ffb45a"></path><path d="M0 487L22.8 490.3C45.7 493.7 91.3 500.3 137 498.7C182.7 497 228.3 487 274 484.5C319.7 482 365.3 487 411.2 493C457 499 503 506 548.8 505.5C594.7 505 640.3 497 686 492.2C731.7 487.3 777.3 485.7 823 486.5C868.7 487.3 914.3 490.7 937.2 492.3L960 494L960 541L937.2 541C914.3 541 868.7 541 823 541C777.3 541 731.7 541 686 541C640.3 541 594.7 541 548.8 541C503 541 457 541 411.2 541C365.3 541 319.7 541 274 541C228.3 541 182.7 541 137 541C91.3 541 45.7 541 22.8 541L0 541Z" fill="#ffca61"></path></svg>